<svg 
t="1683189684224" class="icon" viewBox="0 0 1024 1024" version="1.1" 
xmlns="http://www.w3.org/2000/svg" 
p-id="881" width="200" height="200">
<g>
<path d="M818.10428 194.440467c0-16.535409-14.045136-29.883268-31.277821-29.883269H233.288716c-17.332296 0-31.277821 13.34786-31.277821 29.883269s14.045136 29.883268 31.277821 29.883268h553.537743c17.232685 0 31.277821-13.34786 31.277821-29.883268zM627.847471 342.8607c0-16.535409-9.662257-29.883268-21.615564-29.883268H223.626459c-11.953307 0-21.615564 13.34786-21.615564 29.883268s9.662257 29.883268 21.615564 29.883269h382.605448c11.953307 0 21.615564-13.34786 21.615564-29.883269zM215.95642 461.397665c-7.76965 0-13.945525 13.34786-13.945525 29.883269s6.275486 29.883268 13.945525 29.883268h247.333852c7.76965 0 13.945525-13.34786 13.945526-29.883268s-6.275486-29.883268-13.945526-29.883269H215.95642zM504.529183 858.247471c-2.888716-2.988327-6.574319-4.48249-10.359533-4.48249-5.677821 0-11.355642 3.38677-13.547082 9.463035l-49.805447 139.554863c-3.486381 9.761868 4.084047 19.125292 13.44747 19.125292 1.792996 0 3.685603-0.398444 5.578211-1.09572L580.731518 966.524514c9.263813-3.884825 11.853696-15.838132 4.880933-23.109728l-81.083268-85.167315z m-50.602335 139.355642L496.361089 878.568093l69.229572 72.715954-111.663813 46.319066zM830.057588 514.390661c-7.470817-7.869261-20.02179-7.869261-27.492607-0.09961L523.056809 805.254475c-7.072374 7.371206-7.072374 18.92607-0.099611 26.396887l86.163425 90.446692c7.470817 7.869261 20.02179 7.869261 27.492607 0.099611l279.607782-290.963424c7.072374-7.371206 7.072374-18.92607 0.099611-26.396887l-86.263035-90.446693z m58.571206 116.644358L636.71284 893.210895c-7.570428 7.869261-20.02179 7.76965-27.492607-0.099611l-58.670817-61.559533c-7.072374-7.371206-6.972763-19.025681 0.099611-26.396887l251.816343-262.175876c7.470817-7.869261 20.02179-7.76965 27.492607 0.099611l58.670817 61.559533c7.072374 7.470817 7.072374 19.125292 0 26.396887zM1006.070039 463.589105L961.045914 416.373541c-9.363424-9.761868-21.615564-14.642802-33.768093-14.642802-12.25214 0-24.404669 4.880934-33.768093 14.642802l-42.533853 44.725292c-7.670039 8.068482-7.670039 20.719066 0 28.787548l83.772763 87.85681c8.168093 8.566537 21.914397 8.566537 30.182101 0l41.238911-43.231129c18.527626-19.623346 18.527626-51.399222-0.099611-70.922957z m-14.44358 57.077043l-26.795331 28.090272c-8.168093 8.666148-21.914397 8.666148-30.182101 0l-56.280155-58.96965c-7.670039-8.068482-7.670039-20.719066 0-28.787548l29.484824-30.879378c5.179767-5.478599 12.052918-8.466926 19.324514-8.466926 7.271595 0 14.144747 2.988327 19.424125 8.466926l45.024124 47.215565c5.478599 5.677821 8.466926 13.447471 8.466926 21.615564 0 8.267704-2.988327 15.937743-8.466926 21.715175z" p-id="882">
</path>
<path d="M269.646693 954.272374H135.470817V69.727626h749.07393v198.225681c0 19.224903 13.248249 34.863813 29.484825 34.863814s29.484825-15.638911 29.484825-34.863814V34.863813c0-19.224903-13.248249-34.863813-29.484825-34.863813H105.985992C89.649805 0 76.401556 15.638911 76.401556 34.863813v954.272374c0 19.224903 13.248249 34.863813 29.484825 34.863813h163.660701c16.236576 0 29.484825-15.638911 29.484825-34.863813s-13.148638-34.863813-29.385214-34.863813z" p-id="883">
</path>
</g>
</svg>
