<svg xmlns="http://www.w3.org/2000/svg" viewBox="0 0 150 150"><defs><style>.cls-1,.cls-4{fill:#fff;}.cls-2{fill:#4262d3;}.cls-3{opacity:0.6;}.cls-4{fill-rule:evenodd;}</style></defs><g id="Lavender"><g id="Layer_8_copy" data-name="Layer 8 copy"><circle class="cls-1" cx="75" cy="75" r="72.5"/><path class="cls-2" d="M75,5A70,70,0,1,1,5,75,70.08,70.08,0,0,1,75,5m0-5a75,75,0,1,0,75,75A75,75,0,0,0,75,0Z"/><circle class="cls-2" cx="75" cy="75" r="61.07"/><g id="Layer_4" data-name="Layer 4" class="cls-3"><path class="cls-4" d="M73.71,36.69a3.85,3.85,0,0,0-3.85,3.56l-15.6,3.58L46.2,46.21A3.91,3.91,0,0,0,39,48.31a3.66,3.66,0,0,0,.59,2l-4.51,5.17-5.51,4.22L28.25,71,31,80.84A3.67,3.67,0,0,0,30.58,86a3.7,3.7,0,0,0,2.79,1.29h0a3.66,3.66,0,0,0,2.2-.73l8,4.47,8-1.86L58,96.61l12.44-.23,15.25,16.93,4.15-1.72-4-12.4c1.59.68,5.21,2.34,5.26,2.36l.07,0,9.47-1.42,10.74-6.62,1.54-6.87,5.21-2.22,3.65-9.95-3.53-9.42,0,0-10-12.94a3.68,3.68,0,0,0-3-5.87,3.71,3.71,0,0,0-2.78,1.27L92.93,43l-.12-.05L77.47,40A3.79,3.79,0,0,0,73.71,36.69ZM77.29,42l14,2.72L85.72,63l-18.49-10,5.46-8.66A3.89,3.89,0,0,0,77.29,42ZM46,50.69a3.86,3.86,0,0,0,.82-2.38v-.2l7.93-2.33,15.46-3.56A3.6,3.6,0,0,0,71,43.31l-5.74,9.06L48.73,54S46,50.69,46,50.69ZM94.58,46l7.07,3.35a3.68,3.68,0,0,0,.23,2L98.32,54,94.58,46Zm-1.86.7,4,8.59-8.57,6.53ZM41,51.71a3.93,3.93,0,0,0,1.9.5,4,4,0,0,0,1.54-.31l1.9,2.31-8.2.81S41,51.71,41,51.71Zm58.17,4.15,3.92-3a3.63,3.63,0,0,0,2.18.72,3.43,3.43,0,0,0,1.38-.27l9,11.74-7.25,2.52a5.34,5.34,0,0,0-5-2.45S99.18,55.86,99.18,55.86Zm-48.93,0,13.67-1.34L59.7,61.12a5.78,5.78,0,0,0-4.82.25S50.25,55.82,50.25,55.82Zm11.9,14.34a5.82,5.82,0,0,0-.73-8l4.76-7.55,19,10.29-2.56,8.43a3.8,3.8,0,0,0-4.21,3.33,2.12,2.12,0,0,0,0,.43,3.8,3.8,0,0,0,.09.84l-7.68,2.65Zm-30.28-9.7,4.26-3.26L47.87,56l5.42,6.55a5.86,5.86,0,0,0-1,6.33l-9,6.39S31.87,60.46,31.87,60.46ZM84.43,74,87.17,65l10.4-7.9,4,8.63a5.21,5.21,0,0,0-2.74,4.55c0,.21,0,.39,0,.57L85.58,75.42A3.91,3.91,0,0,0,84.43,74ZM30.26,70.8l.93-8,10.5,13.62-6.06,4.3a3.74,3.74,0,0,0-2.26-.79,5.65,5.65,0,0,0-.59,0ZM107.61,74a5.16,5.16,0,0,0,1.52-4.6l7.61-2.63,2.91,7.73L116.56,83l-4,1.7ZM44.5,76.85l8.83-6.3a5.75,5.75,0,0,0,4.24,1.83,5.63,5.63,0,0,0,3.08-.88l8.1,9.77-5.87,2a2.92,2.92,0,0,0-4.06-.72,2.87,2.87,0,0,0-1.25,2.38v.16l-5.3,1.83L44.5,76.85Zm37.87,4a3.79,3.79,0,0,0,3.55-3.45l13.53-4.66a5.19,5.19,0,0,0,1.84,1.94l-3.88,9.07a4.18,4.18,0,0,0-5.25,4.06V88L79.62,89.88S82.37,80.86,82.37,80.86Zm23.56-5.76,4.67,10.09-10.17,1.54a4.12,4.12,0,0,0-1.27-2l4-9.32a5,5,0,0,0,2.78-.27ZM36.79,85a3.65,3.65,0,0,0,0-2.68L42.89,78l7.29,9.5L43.86,89ZM72.1,82.2l7.27-2.52a3.87,3.87,0,0,0,1,.79l-2.61,8.61Zm-8.7,3,6.7-2.31,6.62,8L70.6,94.41l-11.74.2-5.25-6,4.73-1.63a2.91,2.91,0,0,0,4.13.14A3,3,0,0,0,63.4,85.19Zm37.07,3.55,10.31-1.56-1.15,5.15-9.68,6-7,1.06,3.12-7.3a4.25,4.25,0,0,0,4.42-3.31ZM88.6,98.24A24.87,24.87,0,0,0,85,96.79c-.56-.48-2.49-2.47-4.78-5l12.51-1.91a4.06,4.06,0,0,0,1.43,1.48L90.8,99.24ZM72.37,95.66,78,92.37c.56.64,1.54,1.68,2.54,2.74.72.77,1.47,1.54,2.22,2.29.43.43.72.7,1,.91l4,12-1.45.61Z"/></g></g></g></svg>