<svg xmlns="http://www.w3.org/2000/svg" width="0" height="0" viewBox="0 0 0 0"><title>Nexus Graph Visualization</title><desc>Created using Nexus Graph (https://paion-data.github.io/nexusgraph/)</desc><g class="layer relationships"><g class="relationship" transform="translate(97.02173974098079 -0.5826218964248786) rotate(433.98394224643204)"><path class="b-outline" fill="#A5ABB6" stroke="none" d="M 25 0.5 L 51.729647756497215 0.5 L 51.729647756497215 -0.5 L 25 -0.5 Z M 85.4735900172394 0.5 L 112.20323777373662 0.5 L 112.20323777373662 3.5 L 119.20323777373662 0 L 112.20323777373662 -3.5 L 112.20323777373662 -0.5 L 85.4735900172394 -0.5 Z"/><text text-anchor="middle" pointer-events="none" font-size="8px" fill="#CBEBF5" x="68.60161888686831" y="3" font-family="Helvetica Neue, Helvetica, Arial, sans-serif">country</text></g><g class="relationship" transform="translate(97.02173974098079 -0.5826218964248786) rotate(491.4371936153117)"><path class="b-outline" fill="#A5ABB6" stroke="none" d="M 25 0.5 L 51.54600203158314 0.5 L 51.54600203158314 -0.5 L 25 -0.5 Z M 87.71395552279408 0.5 L 114.25995755437722 0.5 L 114.25995755437722 3.5 L 121.25995755437722 0 L 114.25995755437722 -3.5 L 114.25995755437722 -0.5 L 87.71395552279408 -0.5 Z"/><text text-anchor="middle" pointer-events="none" font-size="8px" fill="#CBEBF5" x="69.62997877718861" y="3" transform="rotate(180 69.62997877718861 0)" font-family="Helvetica Neue, Helvetica, Arial, sans-serif">member</text></g><g class="relationship" transform="translate(97.02173974098079 -0.5826218964248786) rotate(539.1926021085119)"><path class="b-outline" fill="#A5ABB6" stroke="none" d="M 25 0.5 L 51.06386385222666 0.5 L 51.06386385222666 -0.5 L 25 -0.5 Z M 89.01579866667979 0.5 L 115.07966251890645 0.5 L 115.07966251890645 3.5 L 122.07966251890645 0 L 115.07966251890645 -3.5 L 115.07966251890645 -0.5 L 89.01579866667979 -0.5 Z"/><text text-anchor="middle" pointer-events="none" font-size="8px" fill="#CBEBF5" x="70.03983125945322" y="3" transform="rotate(180 70.03983125945322 0)" font-family="Helvetica Neue, Helvetica, Arial, sans-serif">currency</text></g><g class="relationship" transform="translate(97.02173974098079 -0.5826218964248786) rotate(225.45954342627329)"><path class="b-outline" fill="#A5ABB6" stroke="none" d="M 25 0.5 L 54.435441674685464 0.5 L 54.435441674685464 -0.5 L 25 -0.5 Z M 85.21136635730265 0.5 L 114.64680803198812 0.5 L 114.64680803198812 3.5 L 121.64680803198812 0 L 114.64680803198812 -3.5 L 114.64680803198812 -0.5 L 85.21136635730265 -0.5 Z"/><text text-anchor="middle" pointer-events="none" font-size="8px" fill="#CBEBF5" x="69.82340401599406" y="3" transform="rotate(180 69.82340401599406 0)" font-family="Helvetica Neue, Helvetica, Arial, sans-serif">capital</text></g><g class="relationship" transform="translate(97.02173974098079 -0.5826218964248786) rotate(289.07500006582586)"><path class="b-outline" fill="#A5ABB6" stroke="none" d="M 25 0.5 L 48.504415797845596 0.5 L 48.504415797845596 -0.5 L 25 -0.5 Z M 88.17633657421278 0.5 L 111.68075237205838 0.5 L 111.68075237205838 3.5 L 118.68075237205838 0 L 111.68075237205838 -3.5 L 111.68075237205838 -0.5 L 88.17633657421278 -0.5 Z"/><text text-anchor="middle" pointer-events="none" font-size="8px" fill="#CBEBF5" x="68.34037618602919" y="3" font-family="Helvetica Neue, Helvetica, Arial, sans-serif">language</text></g></g><g class="layer nodes"><g class="node" aria-label="graph-nodeChina" transform="translate(97.02173974098079,-0.5826218964248786)"><circle class="b-outline" cx="0" cy="0" r="25" fill="rgba(135, 214, 244, 0.85)" stroke="rgba(100, 214, 244, 0.7)" stroke-width="2px"/><text class="caption" text-anchor="middle" pointer-events="none" x="0" y="5" font-size="10px" fill="#FFFFFF" font-family="Helvetica Neue, Helvetica, Arial, sans-serif"> China</text></g><g class="node" aria-label="graph-nodeAsia" transform="translate(136.80838624669013,138.02328181715632)"><circle class="b-outline" cx="0" cy="0" r="25" fill="rgba(135, 214, 244, 0.85)" stroke="rgba(100, 214, 244, 0.7)" stroke-width="2px"/><text class="caption" text-anchor="middle" pointer-events="none" x="0" y="5" font-size="10px" fill="#FFFFFF" font-family="Helvetica Neue, Helvetica, Arial, sans-serif"> Asia</text></g><g class="node" aria-label="graph-nodeUnited Nations" transform="translate(0.2270956240079456,109.0657800713047)"><circle class="b-outline" cx="0" cy="0" r="25" fill="rgba(135, 214, 244, 0.85)" stroke="rgba(100, 214, 244, 0.7)" stroke-width="2px"/><text class="caption" text-anchor="middle" pointer-events="none" x="0" y="0" font-size="10px" fill="#FFFFFF" font-family="Helvetica Neue, Helvetica, Arial, sans-serif"> United</text><text class="caption" text-anchor="middle" pointer-events="none" x="0" y="10" font-size="10px" fill="#FFFFFF" font-family="Helvetica Neue, Helvetica, Arial, sans-serif"> Nations</text></g><g class="node" aria-label="graph-nodeRenminbi" transform="translate(-50.043319666490866,1.48991957535346)"><circle class="b-outline" cx="0" cy="0" r="25" fill="rgba(135, 214, 244, 0.85)" stroke="rgba(100, 214, 244, 0.7)" stroke-width="2px"/><text class="caption" text-anchor="middle" pointer-events="none" x="0" y="5" font-size="10px" fill="#FFFFFF" font-family="Helvetica Neue, Helvetica, Arial, sans-serif"> Renminbi</text></g><g class="node" aria-label="graph-nodeBeijing" transform="translate(-5.838196168728391,-105.10592021130441)"><circle class="b-outline" cx="0" cy="0" r="25" fill="rgba(135, 214, 244, 0.85)" stroke="rgba(100, 214, 244, 0.7)" stroke-width="2px"/><text class="caption" text-anchor="middle" pointer-events="none" x="0" y="5" font-size="10px" fill="#FFFFFF" font-family="Helvetica Neue, Helvetica, Arial, sans-serif"> Beijing</text></g><g class="node" aria-label="graph-nodeMandarin" transform="translate(143.97740807663953,-136.37409369547555)"><circle class="b-outline" cx="0" cy="0" r="25" fill="rgba(135, 214, 244, 0.85)" stroke="rgba(100, 214, 244, 0.7)" stroke-width="2px"/><text class="caption" text-anchor="middle" pointer-events="none" x="0" y="5" font-size="10px" fill="#FFFFFF" font-family="Helvetica Neue, Helvetica, Arial, sans-serif"> Mandarin</text></g></g></svg>