<?xml version="1.0" encoding="UTF-8"?>
<svg id="Layer_1" data-name="Layer 1" xmlns="http://www.w3.org/2000/svg" xmlns:xlink="http://www.w3.org/1999/xlink" viewBox="0 0 407 407">
  <defs>
    <style>
      .cls-1, .cls-2, .cls-3, .cls-4, .cls-5, .cls-6 {
        fill: none;
      }

      .cls-7 {
        fill: url(#_未命名的渐变_313);
      }

      .cls-8 {
        fill: url(#_未命名的渐变_334);
      }

      .cls-9 {
        fill: url(#_未命名的渐变_323);
      }

      .cls-10 {
        fill: url(#_未命名的渐变_304);
      }

      .cls-11 {
        fill: #f3dae0;
      }

      .cls-12 {
        fill: #a5c0da;
      }

      .cls-13 {
        fill: #d5b9d2;
      }

      .cls-14 {
        fill: url(#_未命名的渐变_42);
      }

      .cls-2 {
        opacity: .5;
        stroke: url(#_未命名的渐变_541);
        stroke-width: 7px;
      }

      .cls-2, .cls-3, .cls-4, .cls-5, .cls-6, .cls-15 {
        stroke-miterlimit: 10;
      }

      .cls-3 {
        stroke: #d5b9d2;
      }

      .cls-3, .cls-4, .cls-5, .cls-6 {
        stroke-width: 2px;
      }

      .cls-4 {
        stroke: #99bfde;
      }

      .cls-5 {
        stroke: #c2e5dc;
      }

      .cls-6 {
        stroke: #f3dae0;
      }

      .cls-16 {
        opacity: .4;
      }

      .cls-17 {
        opacity: .8;
      }

      .cls-15 {
        fill: url(#_未命名的渐变_304-2);
        stroke: url(#_未命名的渐变_370);
      }
    </style>
    <linearGradient id="_未命名的渐变_541" data-name="未命名的渐变 541" x1="0" y1="203.5" x2="407" y2="203.5" gradientUnits="userSpaceOnUse">
      <stop offset="0" stop-color="#72b5db"/>
      <stop offset=".12" stop-color="#74b6db" stop-opacity=".98"/>
      <stop offset=".25" stop-color="#7cbadd" stop-opacity=".93"/>
      <stop offset=".37" stop-color="#89c1e0" stop-opacity=".83"/>
      <stop offset=".5" stop-color="#9bcae5" stop-opacity=".7"/>
      <stop offset=".62" stop-color="#b3d7eb" stop-opacity=".54"/>
      <stop offset=".75" stop-color="#cfe6f2" stop-opacity=".33"/>
      <stop offset=".87" stop-color="#f1f7fb" stop-opacity=".1"/>
      <stop offset=".92" stop-color="#fff" stop-opacity="0"/>
    </linearGradient>
    <linearGradient id="_未命名的渐变_304" data-name="未命名的渐变 304" x1="98.11" y1="121.24" x2="144.37" y2="121.24" gradientUnits="userSpaceOnUse">
      <stop offset="0" stop-color="#99bfdd"/>
      <stop offset=".14" stop-color="#99bfdd" stop-opacity=".98"/>
      <stop offset=".27" stop-color="#9bc1dd" stop-opacity=".93"/>
      <stop offset=".41" stop-color="#9ec4df" stop-opacity=".84"/>
      <stop offset=".54" stop-color="#a2c9e0" stop-opacity=".71"/>
      <stop offset=".67" stop-color="#a7cfe2" stop-opacity=".55"/>
      <stop offset=".81" stop-color="#add6e5" stop-opacity=".35"/>
      <stop offset=".94" stop-color="#b5dee8" stop-opacity=".12"/>
      <stop offset="1" stop-color="#b9e3ea" stop-opacity="0"/>
    </linearGradient>
    <linearGradient id="_未命名的渐变_334" data-name="未命名的渐变 334" x1="65.84" y1="285.65" x2="112.1" y2="285.65" gradientUnits="userSpaceOnUse">
      <stop offset="0" stop-color="#c1e4dc"/>
      <stop offset=".23" stop-color="#c4e5de" stop-opacity=".96"/>
      <stop offset=".58" stop-color="#cfe8e4" stop-opacity=".86"/>
      <stop offset="1" stop-color="#e0edee" stop-opacity=".7"/>
      <stop offset="1" stop-color="#e1eeef" stop-opacity=".7"/>
    </linearGradient>
    <linearGradient id="_未命名的渐变_323" data-name="未命名的渐变 323" x1="314.95" y1="285.65" x2="315.45" y2="285.65" gradientUnits="userSpaceOnUse">
      <stop offset="0" stop-color="#f5e1e6"/>
      <stop offset=".17" stop-color="#f2dde4" stop-opacity=".98"/>
      <stop offset=".43" stop-color="#ebd5e0" stop-opacity=".91"/>
      <stop offset=".73" stop-color="#e0c7d9" stop-opacity=".81"/>
      <stop offset="1" stop-color="#d5b9d2" stop-opacity=".7"/>
    </linearGradient>
    <linearGradient id="_未命名的渐变_304-2" data-name="未命名的渐变 304" x1="64.1" y1="203.44" x2="146.22" y2="203.44" xlink:href="#_未命名的渐变_304"/>
    <linearGradient id="_未命名的渐变_370" data-name="未命名的渐变 370" x1="63.3" y1="203.43" x2="147.03" y2="203.43" gradientUnits="userSpaceOnUse">
      <stop offset="0" stop-color="#abdfea" stop-opacity=".8"/>
      <stop offset=".21" stop-color="#a8dde9" stop-opacity=".79"/>
      <stop offset=".36" stop-color="#a2d9e7" stop-opacity=".75"/>
      <stop offset=".49" stop-color="#96d1e4" stop-opacity=".68"/>
      <stop offset=".61" stop-color="#86c6e0" stop-opacity=".59"/>
      <stop offset=".72" stop-color="#72b8da" stop-opacity=".47"/>
      <stop offset=".83" stop-color="#58a7d4" stop-opacity=".32"/>
      <stop offset=".93" stop-color="#3b93cc" stop-opacity=".14"/>
      <stop offset="1" stop-color="#2383c6" stop-opacity="0"/>
    </linearGradient>
    <linearGradient id="_未命名的渐变_313" data-name="未命名的渐变 313" x1="269.03" y1="203.55" x2="342.89" y2="203.55" gradientUnits="userSpaceOnUse">
      <stop offset="0" stop-color="#dab8d3"/>
      <stop offset=".19" stop-color="#d9b8d3" stop-opacity=".99"/>
      <stop offset=".33" stop-color="#d9b9d4" stop-opacity=".94"/>
      <stop offset=".46" stop-color="#d8bad5" stop-opacity=".87"/>
      <stop offset=".57" stop-color="#d6bcd7" stop-opacity=".77"/>
      <stop offset=".68" stop-color="#d4bed9" stop-opacity=".63"/>
      <stop offset=".78" stop-color="#d2c2dd" stop-opacity=".47"/>
      <stop offset=".88" stop-color="#cfc5e0" stop-opacity=".27"/>
      <stop offset=".98" stop-color="#cbcae5" stop-opacity=".05"/>
      <stop offset="1" stop-color="#cbcbe6" stop-opacity="0"/>
    </linearGradient>
    <linearGradient id="_未命名的渐变_42" data-name="未命名的渐变 42" x1="144.71" y1="203.5" x2="292.22" y2="203.5" gradientUnits="userSpaceOnUse">
      <stop offset="0" stop-color="#f3dae0"/>
      <stop offset="1" stop-color="#fff" stop-opacity="0"/>
    </linearGradient>
  </defs>
  <circle class="cls-2" cx="203.5" cy="203.5" r="200"/>
  <g class="cls-17">
    <path class="cls-13" d="M285.97,132.53l-.03,.17-.92,5.01-1.47,8.02-.82,4.48-11.53,62.88-.22,1.22c-.2,1.11-1.43,1.96-2.87,2.08-.2,.02-.4,.02-.6,0-.65-.04-1.22-.23-1.67-.52-.71-.47-1.11-1.18-.96-1.96l-.22-4.28,14.22-72.08,.99-5.43s.02-.1,.03-.14c.03-.09,.06-.17,.09-.26,0,0,0,0,0,0,.45-1.05,1.85-1.77,3.34-1.67,.16,.01,.33,.03,.48,.06,1.42,.27,2.36,1.29,2.15,2.42Z"/>
  </g>
  <g class="cls-16">
    <path class="cls-13" d="M352.57,129.43s0,0,0,0c0,.02,0,.03,0,.04l-31.5,159.43c-.03,.17-.08,.34-.14,.49-.45,1.2-1.61,2-2.88,2-.17,0-.34-.02-.51-.04-.03,0-.06-.01-.1-.02-1.67-.33-2.76-1.95-2.43-3.62l2.01-10.16,1.19-6.01,24.68-124.94,1.19-6.01,2.43-12.3c.33-1.66,1.94-2.74,3.6-2.43,0,0,.02,0,.03,0,1.65,.33,2.74,1.92,2.44,3.57Z"/>
  </g>
  <g>
    <path class="cls-4" d="M153.73,121.35c0,17.88-14.5,32.38-32.38,32.38-8.66,0-16.53-3.4-22.34-8.94l-.14-.14-.75-.75c-5.66-5.83-9.15-13.78-9.15-22.55,0-17.88,14.5-32.38,32.38-32.38,9.01,0,17.16,3.68,23.02,9.62l.14,.14c5.7,5.84,9.21,13.82,9.21,22.62Z"/>
    <path class="cls-4" d="M156.2,114.78c-1.27-6.83-4.53-13.13-9.48-18.2l-.08-.08s-.04-.04-.06-.06l-.02-.02c-6.71-6.79-15.67-10.53-25.22-10.53-17.29,0-31.74,12.44-34.85,28.85-.41,2.14-.62,4.35-.62,6.61,0,4.87,.98,9.6,2.85,13.96,1.68,3.94,4.1,7.58,7.17,10.74l.78,.79,.19,.19c6.62,6.32,15.31,9.79,24.47,9.79,9.68,0,18.47-3.9,24.88-10.21,4.83-4.76,8.31-10.89,9.79-17.75,.53-2.42,.8-4.93,.8-7.5,0-2.23-.2-4.43-.61-6.57Zm-34.86,35.87c-7.56,0-14.73-2.87-20.2-8.08l-.84-.83c-5.33-5.5-8.26-12.74-8.26-20.39,0-1.83,.17-3.61,.49-5.35,2.52-13.61,14.48-23.95,28.81-23.95,7.89,0,15.29,3.09,20.84,8.71l.19,.19c5.33,5.5,8.26,12.73,8.26,20.39,0,16.15-13.14,29.3-29.3,29.3Z"/>
  </g>
  <g>
    <circle class="cls-5" cx="88.97" cy="285.54" r="32.38"/>
    <path class="cls-5" d="M121.56,271.57c-5.43-12.63-17.99-21.49-32.59-21.49-9.68,0-18.45,3.9-24.86,10.2-4.71,4.63-8.13,10.56-9.68,17.2-.18,.76-.33,1.54-.46,2.33v.06c-.02,.06-.03,.12-.04,.19-.28,1.79-.43,3.63-.43,5.5,0,19.56,15.91,35.47,35.47,35.47,17.71,0,32.43-13.05,35.05-30.04,0,0,0-.02,0-.02h0c.27-1.77,.41-3.57,.41-5.4,0-4.96-1.02-9.69-2.87-13.98Zm-32.59,43.28c-16.15,0-29.3-13.14-29.3-29.3,0-1.59,.13-3.15,.38-4.67,.1-.68,.24-1.36,.4-2.03,3.04-12.94,14.67-22.6,28.52-22.6,16.16,0,29.3,13.14,29.3,29.3s-13.14,29.3-29.3,29.3Z"/>
  </g>
  <g>
    <path class="cls-6" d="M318.03,285.54v.11c0,17.88-14.5,32.38-32.38,32.38-9.06,0-17.25-3.72-23.13-9.72l-.18-.18c-5.62-5.82-9.08-13.75-9.08-22.48,0-17.88,14.5-32.38,32.38-32.38,8.87,0,16.9,3.57,22.75,9.34,.08,.08,.17,.16,.25,.25l.13,.13c5.7,5.82,9.22,13.77,9.25,22.55Z"/>
    <path class="cls-6" d="M318.2,271.54c-1.71-3.94-4.14-7.57-7.24-10.73l-.11-.11c-.05-.05-.1-.1-.16-.15-.02-.02-.03-.04-.05-.06-.03-.03-.06-.06-.08-.08-5.09-5.03-11.44-8.33-18.34-9.61-2.14-.4-4.34-.61-6.57-.61-19.56,0-35.47,15.91-35.47,35.47,0,2.23,.2,4.42,.61,6.57,1.26,6.76,4.47,13.02,9.34,18.06l.19,.19s.06,.06,.09,.09c.02,.02,.03,.03,.05,.05,6.71,6.78,15.65,10.52,25.2,10.52,18.29,0,33.39-13.91,35.27-31.71,.13-1.23,.2-2.49,.2-3.76v-.12c-.02-4.88-1.01-9.62-2.91-13.99Zm-3.25,14.11c0,16.16-13.14,29.3-29.3,29.3-7.89,0-15.27-3.08-20.84-8.71-.03-.04-.07-.07-.11-.11l-.16-.16-.05-.05c-5.25-5.48-8.14-12.67-8.14-20.27,0-16.15,13.14-29.3,29.3-29.3,7.72,0,14.99,2.97,20.5,8.37l.07,.07s.04,.04,.06,.06c.05,.05,.1,.1,.15,.15l.15,.15c5.37,5.48,8.35,12.73,8.37,20.4v.1Z"/>
  </g>
  <g>
    <path class="cls-3" d="M350.42,121.35v.11c-.06,17.83-14.53,32.27-32.38,32.27s-32.32-14.44-32.38-32.27v-.11c0-17.88,14.5-32.38,32.38-32.38s32.38,14.5,32.38,32.38Z"/>
    <path class="cls-3" d="M318.03,85.89c-15.74,0-29.11,10.3-33.74,24.52,0,0,0,0,0,0-.04,.11-.07,.23-.11,.34-.74,2.36-1.24,4.83-1.47,7.38-.1,1.06-.15,2.13-.15,3.22v.12c.02,5.01,1.08,9.77,2.98,14.09,5.49,12.5,18,21.26,32.48,21.26,9.67,0,18.45-3.9,24.85-10.21,4.7-4.62,8.12-10.54,9.68-17.17,0,0,0,0,0,0,.6-2.57,.92-5.24,.93-7.98v-.1c0-19.56-15.91-35.47-35.47-35.47Zm-29.3,35.57v-.1c0-.79,.03-1.57,.1-2.34,.18-2.3,.63-4.52,1.32-6.64,3.8-11.77,14.86-20.31,27.88-20.31,16.16,0,29.3,13.14,29.3,29.3v.1c-.05,16.1-13.19,29.2-29.3,29.2s-29.24-13.1-29.3-29.19Z"/>
  </g>
  <circle class="cls-10" cx="121.24" cy="121.24" r="23.13"/>
  <circle class="cls-8" cx="88.97" cy="285.65" r="23.13"/>
  <circle class="cls-13" cx="318.03" cy="121.46" r="23.13"/>
  <circle class="cls-9" cx="285.65" cy="285.65" r="23.13"/>
  <path class="cls-1" d="M350.42,124.54c-1.7,0-3.08-1.38-3.08-3.08v-.11c0-1.7,1.38-3.08,3.08-3.08s3.08,1.38,3.08,3.08v.11c0,1.7-1.38,3.08-3.08,3.08Z"/>
  <path class="cls-1" d="M285.65,124.54c-1.7,0-3.08-1.38-3.08-3.08v-.11c0-1.7,1.38-3.08,3.08-3.08s3.08,1.38,3.08,3.08v.11c0,1.7-1.38,3.08-3.08,3.08Z"/>
  <path class="cls-15" d="M146.22,146.6l-7.88,39.94s0,.03-.01,.05l-16.77,84.98c-5.43-12.63-17.99-21.49-32.59-21.49-9.68,0-18.45,3.9-24.86,10.2l24.63-124.97c1.68,3.94,4.1,7.58,7.17,10.74l.78,.79,.19,.19c6.62,6.32,15.31,9.79,24.47,9.79,9.68,0,18.47-3.9,24.88-10.21Z"/>
  <path class="cls-7" d="M342.89,146.61l-24.68,124.94c-1.71-3.94-4.14-7.57-7.24-10.73l-.11-.11c-.05-.05-.1-.1-.16-.15-.02-.02-.03-.04-.05-.06-.02-.02-.04-.04-.06-.06l-.03-.02-41.53-41.53,16.52-83.32c5.49,12.5,18,21.26,32.48,21.26,9.67,0,18.45-3.9,24.85-10.21Z"/>
  <path class="cls-14" d="M292.22,250.79c-2.14-.4-4.34-.61-6.57-.61-19.56,0-35.47,15.91-35.47,35.47,0,2.23,.2,4.42,.61,6.57l-106.09-106.08,11.29-57.18s.01-.06,.02-.1c.53-2.42,.8-4.93,.8-7.5,0-2.23-.2-4.43-.61-6.57l107.26,107.26,28.76,28.76Z"/>
  <g class="cls-16">
    <path class="cls-11" d="M146.73,95.4l12.58,12.79,5.78,5.88,118.82,120.83,5.73,5.83,11.91,12.12,1.93,1.96,.17,.18c1.4,1.42,1.6,3.49,.58,4.94-.08,.11-.16,.22-.26,.32-.07,.08-.15,.16-.23,.23-1.48,1.36-3.89,1.27-5.48-.19-.06-.05-.12-.11-.18-.17l-.05-.05-2.21-2.25L141.16,100.53s-.04-.04-.06-.07c-1.53-1.62-1.55-4.03-.03-5.43,.03-.03,.07-.06,.1-.09,1.55-1.32,4.01-1.13,5.56,.45Z"/>
  </g>
  <g class="cls-17">
    <path class="cls-11" d="M145.12,185.79l9.19,9.36,4.22,4.3,86.77,88.36,4.19,4.27,8.7,8.86,1.41,1.43,.13,.13c1.02,1.04,1.13,2.64,.33,3.8-.06,.09-.13,.18-.2,.26-.05,.06-.12,.13-.18,.19-1.14,1.12-2.95,1.16-4.11,.1-.05-.04-.09-.08-.13-.12l-.04-.04-1.61-1.64-112.95-115.01s-.03-.03-.05-.05c-1.12-1.18-1.08-3.05,.09-4.2,.03-.03,.05-.05,.08-.07,1.19-1.09,3.03-1.05,4.17,.1Z"/>
  </g>
  <g class="cls-17">
    <path class="cls-12" d="M95.15,104.96s0,0,0,0c0,.02,0,.03,0,.04l-31.5,159.43c-.03,.17-.08,.34-.14,.49-.45,1.2-1.61,2-2.88,2-.17,0-.34-.02-.51-.04-.03,0-.06-.01-.1-.02-1.67-.33-2.76-1.95-2.43-3.62l2.01-10.16,1.19-6.01,24.68-124.94,1.19-6.01,2.43-12.3c.33-1.66,1.94-2.74,3.6-2.43,0,0,.02,0,.03,0,1.65,.33,2.74,1.92,2.44,3.57Z"/>
  </g>
  <g class="cls-16">
    <path class="cls-12" d="M153.49,140.51l-.05,.28-1.64,8.22-2.62,13.15-1.46,7.34-20.54,103.15-.4,2c-.36,1.82-1.7,3.04-3.14,2.98-.2,0-.4-.04-.6-.1-.64-.18-1.18-.6-1.58-1.16-.64-.9-.92-2.17-.67-3.45l1.4-7.01,23.55-118.24,1.77-8.9c.02-.08,.03-.16,.06-.24,.04-.14,.08-.28,.12-.42,0,0,0,0,0-.01,.6-1.67,2.09-2.64,3.56-2.22,.16,.05,.32,.11,.47,.19,1.37,.7,2.15,2.56,1.78,4.42Z"/>
  </g>
</svg>