<svg id="Layer_1" data-name="Layer 1" xmlns="http://www.w3.org/2000/svg" viewBox="0 0 1000 1000"><defs><style>.cls-1,.cls-14,.cls-3{fill:#454099;}.cls-1{opacity:0.4;}.cls-10,.cls-11,.cls-12,.cls-2,.cls-4,.cls-6,.cls-7,.cls-8,.cls-9{fill:none;}.cls-10,.cls-11,.cls-2,.cls-3,.cls-9{stroke:#454099;}.cls-12,.cls-2,.cls-3,.cls-4,.cls-5{stroke-miterlimit:10;}.cls-2,.cls-3{stroke-width:10px;}.cls-4,.cls-5,.cls-6,.cls-7,.cls-8{stroke:#29b463;}.cls-10,.cls-11,.cls-12,.cls-4,.cls-5,.cls-6,.cls-7,.cls-8,.cls-9{stroke-width:15px;}.cls-5{fill:#fff;}.cls-10,.cls-11,.cls-6,.cls-7,.cls-8,.cls-9{stroke-miterlimit:133.33;}.cls-11,.cls-13,.cls-6,.cls-8,.cls-9{isolation:isolate;}.cls-11,.cls-6,.cls-8,.cls-9{opacity:0.5;}.cls-11,.cls-12,.cls-8{stroke-linecap:round;}.cls-12{stroke:#fff;opacity:0.55;}.cls-13{fill:#2365b0;opacity:0.88;}.cls-15{fill:#29b463;}</style></defs><rect class="cls-1" width="1000" height="1000"/><line class="cls-2" x1="357.67" y1="152.03" x2="456.23" y2="403.95"/><line class="cls-2" x1="531.39" y1="596.05" x2="629.95" y2="847.97"/><line class="cls-2" x1="707.35" y1="416.45" x2="589.85" y2="462.42"/><line class="cls-3" x1="311.91" y1="302.98" x2="423.88" y2="424.16"/><line class="cls-3" x1="494.46" y1="603.16" x2="495.21" y2="771.47"/><circle class="cls-4" cx="495.21" cy="849.1" r="77.61"/><circle class="cls-4" cx="493.81" cy="500" r="103.14"/><circle class="cls-5" cx="259.23" cy="245.96" r="77.61"/><circle class="cls-4" cx="651.15" cy="902.16" r="58.19"/><circle class="cls-4" cx="336.46" cy="97.84" r="58.19"/><circle class="cls-6" cx="757.49" cy="379.45" r="17.39"/><circle class="cls-7" cx="757.49" cy="396.84" r="57.96"/><path class="cls-8" d="M792.08,443.21c-.92-16.76-6.05-29-34.59-29s-33.68,12.22-34.6,29"/><circle class="cls-9" cx="493.71" cy="482.36" r="17.39"/><circle class="cls-10" cx="493.71" cy="499.75" r="57.96"/><path class="cls-11" d="M528.31,546.12c-.92-16.76-6.06-29-34.6-29s-33.68,12.22-34.6,29"/><path class="cls-12" d="M569.31,468.1c.65,1.47,1.28,3,1.87,4.49,1.11,2.83,2.08,5.66,2.93,8.49"/><path class="cls-12" d="M519.94,422.17a85.3,85.3,0,0,1,37.38,26.71"/><path class="cls-13" d="M378.91,83.61a.48.48,0,0,0-.08-.16l-.2-.26.05-.21a.41.41,0,0,0,0-.22,44.4,44.4,0,0,0-6.95-13.93.49.49,0,0,0-.18-.14l-.52-.22a.43.43,0,0,0-.41,0l-.42.28c-.28-.36-.58-.74-.74-1a24.29,24.29,0,0,1-1.58-2,.45.45,0,0,0,0-.23l-.22-.64a8.71,8.71,0,0,0-1.88-2,5.41,5.41,0,0,0-.92-.52,3.35,3.35,0,0,0-.83-.18.52.52,0,0,0-.25.07c-1.13-.81-3.58-2.78-3.61-2.8a.37.37,0,0,0-.14-.07l-.49-.16a.35.35,0,0,0-.39.08,1.39,1.39,0,0,1-.51.18,8.58,8.58,0,0,1-1.31.24l-.1,0c-.52.06-.71.28-.77.45l-.71,1.13a.49.49,0,0,0,0,.11.69.69,0,0,0,0,.39.14.14,0,0,1,0-.06,2.47,2.47,0,0,0-.62-.75A4.6,4.6,0,0,0,352.4,61a17.24,17.24,0,0,0-2.55.7c-.21.08-1.33.46-1.91.61-.34.08-.63.17-.89.25l-.5.14-3.86,1.14a13.76,13.76,0,0,1-1.49.37c-.3,0-.55,0-.76,0a2.55,2.55,0,0,1-.84-.09s0-.09,0-.09v-1a1.14,1.14,0,0,0-.52-.86,3.51,3.51,0,0,0-1.53-.3,8.2,8.2,0,0,0-1.88.13A3.08,3.08,0,0,0,334,63a1.67,1.67,0,0,0-.52,1.27s0,.59.08,1a1.23,1.23,0,0,0,.12.41,13.91,13.91,0,0,1-2,.72,19.51,19.51,0,0,1-3,.64.42.42,0,0,0-.38.45c0,.48.41,2.59.45,2.83s.2,1.18.27,1.47.27.88.27.88a1.16,1.16,0,0,0,.61.74,2.43,2.43,0,0,0,1.81,0,2.56,2.56,0,0,0,1.1-.81l.41-.49a.94.94,0,0,1,.82-.2,1.81,1.81,0,0,1,.83.78c-.23.07-.52.17-.74.22-.42.12-4.57,1.45-4.57,1.45s-1.6.52-2.88.83a15.23,15.23,0,0,1-2.25.42,1.84,1.84,0,0,1-.32,0l.13-.23,0,0h0a.66.66,0,0,0,.06-.2s0,0,0,0,0-.06,0-.09v-.14l0-.08a.93.93,0,0,0-.05-.1,3.22,3.22,0,0,0-.46-.67,1.35,1.35,0,0,0-.28-.22,1.31,1.31,0,0,0-.57-.16,4.28,4.28,0,0,0-2,.43,4,4,0,0,0-2,1.39,1,1,0,0,0,0,.88,6.88,6.88,0,0,0,.89,1h0a5.51,5.51,0,0,1-1.71,1l-.06,0-.07,0A16.81,16.81,0,0,1,315,79c-.68.08-1.3.13-1.75.15a4.15,4.15,0,0,0,.89-1.28,3.44,3.44,0,0,0-.26-3.17,7.89,7.89,0,0,0-.92-.78,1.26,1.26,0,0,0-1.31-.11,5,5,0,0,1,.33-1.17c.28-.67.88-1.85.88-1.85a21.29,21.29,0,0,0,1.27-2.51,5.39,5.39,0,0,0,.38-1.79.43.43,0,0,0-.09-.26l-.63-.81a1.69,1.69,0,0,0,1.25-.19,6,6,0,0,0,1.53-2l.83-1.69a.4.4,0,0,0,0-.41L316.67,60a.43.43,0,0,0-.28-.19c-.08,0-.22,0-1.05.24-.38.13-.69.26-.91.36l-.23-.34-.1-.11c-.19-.19-.56-.22-1.16-.09a4.28,4.28,0,0,0-2.12,1.29,2.7,2.7,0,0,0-.43.74,11.44,11.44,0,0,1-2.51,1.68,1.49,1.49,0,0,0-.73.3,27.62,27.62,0,0,0-2.7,2.76.91.91,0,0,0-.16.24,2.24,2.24,0,0,0-.19.87s0,0,0,0a14.35,14.35,0,0,1-1.06,1.29h-.15a3.71,3.71,0,0,0-.74.4.32.32,0,0,0-.12.11c-.33.46-1.07,1.69-1.32,2.1l-.16.09a.42.42,0,0,0-.19.06l-.58.32a.54.54,0,0,0-.15.15,43.17,43.17,0,0,0-5.53,14.34.41.41,0,0,0,0,.19l0,.13-.16.34,0,.1a43.69,43.69,0,0,0-.36,12.39.4.4,0,0,0,.07.19l.16.22-.1.23a.55.55,0,0,0,0,.22,42.91,42.91,0,0,0,5.63,16.3.28.28,0,0,0,.11.13l.06,0,0,.17a.31.31,0,0,0,.05.1,43.53,43.53,0,0,0,80.61-18.76.64.64,0,0,0,0-.2l-.12-.27.16-.25a.41.41,0,0,0,.05-.19c.06-1,.1-1.92.1-2.85A43.47,43.47,0,0,0,378.91,83.61Zm.15,5.92c.05,0,.09-.17.08-.44.15,1.09.25,2.18.32,3.28a1.78,1.78,0,0,0-.1.51s-.06.39-.14.39l-.08,0c-.1-.06-.27-.27-.39-1.18a16.85,16.85,0,0,1-.13-2.49s0-.13,0-.16.15.09.15.09A.16.16,0,0,0,379.06,89.53Zm-.94-5.62c.18.68.32,1.37.47,2.06-.21-.87-.45-1.67-.63-2.26Zm-.16-.2c.05.15.1.32.15.49-.06-.17-.11-.35-.15-.49Zm-.13-.16,0,0-.14-.15h0l.12.13Zm-1.71-5.34h0a42.15,42.15,0,0,1,1.67,4.59h-.14s-.27-.77-.88-2.31a16.75,16.75,0,0,1-.71-2.06v0S376,78.24,376.12,78.21Zm1.59,5.2Zm-.06-.62Zm-6.34-12.24a2.69,2.69,0,0,0,.32-.19l.08-.09c.73,1,1.41,2.1,2,3.2-.07,0-.13.11,0,.52s.12.35.1.37-.16-.17-.16-.17c-.78-1-2.4-3.63-2.4-3.63l-.16-.11Zm-.52.23.07,0,.05,0,.14-.06,0,0h0v0c.87,1.39,2.41,3.63,2.41,3.63s.62.81.76.81-.07-.62-.07-.62-.07-.26,0-.29c.58,1,1.11,2.11,1.6,3.18h0a.28.28,0,0,0-.13.27,5.64,5.64,0,0,0,.42,1.41s.88,2.23,1.44,3.8a1.38,1.38,0,0,1-.67.32,2.24,2.24,0,0,0-1.65,1.11,1.51,1.51,0,0,0-.24.79v0s0,0,0,0a1.51,1.51,0,0,0,0,.3.22.22,0,0,0,0,.08,1.55,1.55,0,0,0,0,.23s0,0,0,.08h0a3.41,3.41,0,0,0,.14.37l.46.75c.14.26.9,1.88,0,3a2.54,2.54,0,0,1-1.29.73c-.73.16-.54-.69-.62-1.15a6,6,0,0,0-1-3c-.83-1-2.32.75-3.07,1.32A30,30,0,0,1,364,92.07l-.11-1.41a9.41,9.41,0,0,0-.47-1.93,14.06,14.06,0,0,0-1.64-3.48,2.18,2.18,0,0,0-1.05-1,1.71,1.71,0,0,0-.62-.12,1.15,1.15,0,0,0-1.21,1,2.26,2.26,0,0,1-.69,1.06c-.37.22-1.37.8-2.05.46a1.08,1.08,0,0,1-.28-.21c-.12-.14-.23-.29-.34-.44a5.91,5.91,0,0,1-.35-.52,4.76,4.76,0,0,1-.63-1.88,1.74,1.74,0,0,1,.32-1.37S355,82,356.25,82c1.44,0,1.7-.44,1.7-.44a1,1,0,0,0,.25-.82,7,7,0,0,0-.65-2.54,4.14,4.14,0,0,0-.23-.35,15.92,15.92,0,0,0-1.2-1.56l-.77-.14.77.14c.5-.19,1.19-.46,1.93-.79A23.56,23.56,0,0,0,361,73.86a6.42,6.42,0,0,1,2.44-.92s.21,0,.23.27a3.49,3.49,0,0,0,.19.93,2.71,2.71,0,0,0,2.3,1.73,2.94,2.94,0,0,0,.59,0,1.26,1.26,0,0,0,.28,0l.22,0a2.86,2.86,0,0,0,.35-.12l.06,0,.31-.17,0,0a2,2,0,0,0,.57-.55,1.57,1.57,0,0,0-.42-1.94s-.81-.87-.83-.93a.12.12,0,0,1,0-.15l.1-.05c.15,0,1.15-.32,2.12-.63C370,71.07,370.45,70.92,370.79,70.78ZM365.5,98.33a1.81,1.81,0,0,0,2.15.84c.72-.18,1-.58,1.36-1.44s.61-.92.61-.92.16-.23.89-.15a1,1,0,0,1,.88.6,5,5,0,0,1,.34,2,3.62,3.62,0,0,1-.55,1.88c-.24.37-1.49.25-1.49.25s-2.14-.24-2.33,2.34a9.12,9.12,0,0,0,.67,4.35,3,3,0,0,0,.9,1.24,5.08,5.08,0,0,1,.51.44.61.61,0,0,1,.11.13h0c-1.53,1.24-2,1.64-3.2,2.5a26.11,26.11,0,0,1-2.9,1.86,7.09,7.09,0,0,1-3.32.72s-.48,0-.25-.4a7.4,7.4,0,0,0,.66-1.64c.12-.44.35-1.54-.54-1.89a5.09,5.09,0,0,0-2.55.17s-3.82,1-5.39,2.73-.24,2.4-.24,2.4A5.76,5.76,0,0,0,353,117c.55.19.44.37.3.47a16.43,16.43,0,0,1-3.72,1.67,27.63,27.63,0,0,1-5.45,1l-3.79.24c-.29-.56-.59-1.07-.59-1.07a3.91,3.91,0,0,1-.46-1.15,2.67,2.67,0,0,1,.26-2,4.52,4.52,0,0,1,2.31-2,6.4,6.4,0,0,1,2.53,0,2.24,2.24,0,0,0,1.8-.19,1.63,1.63,0,0,0,.72-.89c0-.06,0-.13.07-.2l.06-.19a3.4,3.4,0,0,0,.1-.5c.23-1.46,0-4.18-1.95-4.71a3.12,3.12,0,0,0-3,.47,10.79,10.79,0,0,1-1.39,1.33c-.34.17-.86.47-.86.47a5.4,5.4,0,0,1-1.23.55c-.31.07-1.35-1.3-1.58-2.46a2,2,0,0,1-.05-.24,25.33,25.33,0,0,1-.28-3.51c0-.24,0-.51,0-.79v0l1.05,0a28.27,28.27,0,0,0,6.12-.83,16.23,16.23,0,0,0,4.2-1.92,2.28,2.28,0,0,0,1.1-1.29,2,2,0,0,0,.06-.28.37.37,0,0,1,0-.09h0c.14-1.09-1.15-1.82-1.15-1.82a8.11,8.11,0,0,1-1.25-.78.35.35,0,0,1-.09-.33.3.3,0,0,1,.07-.14,4.48,4.48,0,0,1,2.45-2,14.15,14.15,0,0,1,3.9-1c.79-.09,1,.2,1.16.33a.82.82,0,0,1,0,.7,11,11,0,0,1-.55,1.18c-.16.3-.44,1-.26,1.37s.71.5,1.4.37a24.09,24.09,0,0,0,4.13-1.31c1.61-.67,4.29-2,4.29-2h0l.07-.6v0l-.07.6A37,37,0,0,0,365.5,98.33ZM369.86,110v.53a4.85,4.85,0,0,1,.12,2.38,9.35,9.35,0,0,1-.84,2.82l-.13.22,0,.06-.12.16-.23.27-.15.16-.06,0a1.54,1.54,0,0,1-.19.17l0,0a2.33,2.33,0,0,1-1.16.58,4.35,4.35,0,0,0-2.92,1l0,0-.09.1-.06,0s0,0,0,0a2.82,2.82,0,0,0-.28.36,3.86,3.86,0,0,0-.59,2.44.84.84,0,0,0,1.14.71,9,9,0,0,0,2.91-1.7c.8-.64.3.21.3.21a13.62,13.62,0,0,1-2,2.76,11.53,11.53,0,0,0-1.5,1.85c-.26.38-.49.71-.67,1h0c-1.05.56-2.57,1.31-3.52,1.7l.15,0-.15.06a12,12,0,0,1-1.19.42h0a1.07,1.07,0,0,1-.54.08h0s0,0,0,0,0,0,0,0a2.68,2.68,0,0,1,.39-.39,1.15,1.15,0,0,0,.34-.68.22.22,0,0,0-.13-.21,2.06,2.06,0,0,0-1.23,0,10.52,10.52,0,0,0-1,.29h0a9.6,9.6,0,0,0-1.13.44h0l.09,0c-.42.19-.69.33-.69.33a7.44,7.44,0,0,0-1.25.74h0l-.05,0-.17.15,0,0-.16.21v0a.58.58,0,0,0-.07.21h0a.34.34,0,0,0,.08.2s.09.16.53.3a.13.13,0,0,1,.09.05v0a.05.05,0,0,1,0,0s0,0,0,0l0,0-.08.06h0a5.65,5.65,0,0,1-.72.29,26,26,0,0,1-3.16.78c-1.17.24-2.17.46-2.85.61h0a4.84,4.84,0,0,0-.3-.8,1,1,0,0,1,0-.1l-.17-.33a.25.25,0,0,1,0-.07c-.06-.12-.13-.23-.19-.33l-.08-.13-.08-.13-.18-.29c-.27-.42-.71-.67-2-.45a15.24,15.24,0,0,0-2.86.88,5.85,5.85,0,0,1-2.79.68,1.51,1.51,0,0,1-.72-.28,1.9,1.9,0,0,1-.7-1.46c0-.38.26-.7.88-1a15.41,15.41,0,0,1,4.21-.68,3.53,3.53,0,0,0,2.92-1.5,1.2,1.2,0,0,0,0-1.71,1.85,1.85,0,0,0-.37-.26,12.45,12.45,0,0,0-1.29-.63l-.28-.15,0,0-.05,0-.14-.1c-.14-.11-.29-.22-.43-.35a3.21,3.21,0,0,1-1-1.37,1.44,1.44,0,0,0-.09-.24l-.42-.28-.29-.19h0l.05,0-.05,0h0l.71.47c.62-.05,1.42-.11,2.14-.15a37.2,37.2,0,0,0,5-.68,21.76,21.76,0,0,0,4.73-1.65c1.46-.75,1.53-1.28,1.53-1.28a.48.48,0,0,0,0-.39.91.91,0,0,0-.38-.46c-.6-.44-.87-.32-1.41-.87a.43.43,0,0,1-.13-.21c-.17-.52.6-1.15.6-1.15s.52-.73,3.4-1.84,3.37-.74,3.51-.61a.25.25,0,0,1,.09.13,1.42,1.42,0,0,1,0,.65c-.06.27-.42,1.23-.61,1.73a1.38,1.38,0,0,0-.1.82.7.7,0,0,0,.61.54,5.71,5.71,0,0,0,2.9-.37c2.44-.87,3.17-1.94,7.21-4.87l0,0V110h0Zm-41.57,14.77a4.49,4.49,0,0,0,1.33,1s.4.18.39.29,0,.26-.31.43a7.56,7.56,0,0,1-3.47.72c-2.3,0-3.31,0-4-.58s.14-1.56.14-1.56a1.59,1.59,0,0,0,0-1.23c-.28-.71-1.88-.72-1.88-.72L318.3,123c-2.61-.07-6.07-.36-7.61-.55h0l-.05-.07s-1.58-2.85-1.42-3.9a1.21,1.21,0,0,1,.72-.87,2.52,2.52,0,0,1,.33-.13c.69-.21.6.46,2.63.82a2.51,2.51,0,0,0,1.71-.16,1.27,1.27,0,0,0,.5-.64,4,4,0,0,0-.48-2.87s-1.22-2.24-2.74-2.33h0c-.76,0-.57.49-1.76.78,0,0-1.62.15-2.13-.82a7.74,7.74,0,0,1-.86-3.4v-.08a5.09,5.09,0,0,1,.06-.9c0-.06,0-.12,0-.2s.06-.2.1-.35a3.16,3.16,0,0,0,.11-.58h0l3.06-.33a20.51,20.51,0,0,1,4.9-.26,2.27,2.27,0,0,1,1.76,1.24.38.38,0,0,1,0,.15.47.47,0,0,1-.22.3,2.51,2.51,0,0,0-.8.75h0l-.05.12h0a1.7,1.7,0,0,0,.19,1.6,3.22,3.22,0,0,0,2.94,1.21,33,33,0,0,0,3.82-.83,3.47,3.47,0,0,0,1.94-1.09,1.39,1.39,0,0,0,.24-.59c.12-.85-1.3-1.94-1.3-1.94s-.68-.52-.77-.63a.13.13,0,0,1,0-.08s.1-.08.1-.08a10.94,10.94,0,0,0,1.15-.35,25,25,0,0,1,2.83-1c1.55-.49,4.74-1.06,4.74-1.06s1.76-.28,4-.46h0l.27-.32.08-.09-.36.41c0,.21,0,.43,0,.65a12.31,12.31,0,0,0,.61,5,4.35,4.35,0,0,0,1.48,2,1.79,1.79,0,0,0,1.7,0,15.94,15.94,0,0,0,1.64-.87c.64-.41.61-.58,1.38-1.28a2.14,2.14,0,0,1,1.75-.51,1.83,1.83,0,0,1,1.48,1.11,5.62,5.62,0,0,1,.29,3.19c-.13.56-.38.92-.9.83a15.08,15.08,0,0,0-1.71-.2,7.48,7.48,0,0,0-2,.17,5,5,0,0,0-2.89,2.44,3.44,3.44,0,0,0-.22,3c.14.39.54.94.88,1.6l.64.22h0l-.63-.21a43.5,43.5,0,0,0-4.73.82,20.3,20.3,0,0,0-5.84,2S327.65,124,328.29,124.73Zm-17.62-2.26v.11h0Zm-3.39-16.27Zm26.59-17.93a28.73,28.73,0,0,0-1.26-5c1.37-.18,2.48-.36,3.75-.6.84-.17,1.75-.37,2.86-.62,0,0,2.58-.46,3.11-1.4.31-.55.87-1.3,0-2h0s-.1-.13-.67-.26c-.24,0-.45-.1-.65-.16a2.87,2.87,0,0,1-.81-.39,1,1,0,0,1-.47-.74s0-.37.73-.81a6.6,6.6,0,0,1,1.21-.63c.26-.11.58-.23.93-.35a8.37,8.37,0,0,1,3.09-.24s.69.07.58.54a13.56,13.56,0,0,0-.53,1.65,1.2,1.2,0,0,0,.17.76,1,1,0,0,0,.24.22,1.66,1.66,0,0,0,.38.22,4.36,4.36,0,0,0,1.52.24,3.57,3.57,0,0,0,.4,0,12.89,12.89,0,0,0,3.08-.67c1.2-.39,2.41-.81,3.14-1.07l.73-.25h0a7.1,7.1,0,0,1,2,3.65s.23.79-.24.85-1.35.06-1.35.06a9.08,9.08,0,0,0-.95.15,1.53,1.53,0,0,0-1,1.17,4.89,4.89,0,0,0,.66,3.48c1,1.85,2.25,1.77,2.25,1.77a3.47,3.47,0,0,0,2.06-.72,2.86,2.86,0,0,0,.94-1.53c0-.18.12-.36.26-.36a2,2,0,0,0,.43,0c.34,0,.59.2.87.76a19.68,19.68,0,0,1,1.41,2.87,10.75,10.75,0,0,1,.54,2.71,9.17,9.17,0,0,0,.11,1l.27.39h0l-.28-.39a71.82,71.82,0,0,1-6.65,3,10.55,10.55,0,0,1-2.23.67s-.15,0,0-.15a5.68,5.68,0,0,0,.43-.63,4.48,4.48,0,0,0,.54-2c0-.81-.94-1.62-2.26-1.47a15.67,15.67,0,0,0-4.1,1.09c-1.52.58-2.83,1.82-3,2.85s.94,1.62.94,1.62,1.25.64,1.41,1a.92.92,0,0,1,0,.66,1.35,1.35,0,0,1-.66.66c-.55.32-2,1.09-2,1.09a13,13,0,0,1-4.71,1.28s-2.58.22-4.07.29h-.05a12,12,0,0,0-.56-4.49,6,6,0,0,0-.44-1,5.37,5.37,0,0,0-2.34-2.09,4.15,4.15,0,0,0-2.68-.08,2,2,0,0,0-1.36,1.12c-.32.55-.71.52-.71.52s-1.16,0-1.57-1.71l0-.09c-.05-.27-.08-.51-.11-.74l0-.15a3.1,3.1,0,0,1,0-.42c0-.1,0-.22,0-.32a2.6,2.6,0,0,1,.49-1.79,1.65,1.65,0,0,1,1.16-.52,5,5,0,0,1,2.14.27,2.67,2.67,0,0,0,2.05-.32,1.78,1.78,0,0,0,1-1A2.92,2.92,0,0,0,333.87,88.27Zm14.28-25.18c.6-.15,1.75-.53,2-.63a16.58,16.58,0,0,1,2.4-.66,4,4,0,0,1,2,0,1.58,1.58,0,0,1,.33.41,2.36,2.36,0,0,0,1,1.13,2.76,2.76,0,0,0,1.81.27c1.45-.36,1.61-1.17,1.46-1.44a2.7,2.7,0,0,0-.76-.73,5.79,5.79,0,0,1-.92-.72.07.07,0,0,1,0-.06,9.24,9.24,0,0,0,1.4-.26,4.41,4.41,0,0,0,.62-.21l.23.07c.45.36,3,2.42,3.9,3a.43.43,0,0,0,.56-.08l0,0a1.77,1.77,0,0,1,.26.22,1.32,1.32,0,0,1,.82.28,8.52,8.52,0,0,1,1.62,1.66l.13.39a.42.42,0,0,0,0,.43,23.23,23.23,0,0,0,1.78,2.21c.09.13.91,1.23,1.36,1.7a8,8,0,0,1-1,.34,12.5,12.5,0,0,0-1.85.68s-.76.24-.47.86l.09.14a.46.46,0,0,0,.07.14l0,0a2.26,2.26,0,0,0,.53.6l.11.12.12.14.05.06a1.81,1.81,0,0,1,.18.27.91.91,0,0,1,.16.44c0,.44-.16.64-.64.91a2.8,2.8,0,0,1-.91.31,2.27,2.27,0,0,1-1.69-.32,2.64,2.64,0,0,1-.67-1.41,1.28,1.28,0,0,0-1-1,2.93,2.93,0,0,0-2.07.35s-.9.48-1.86,1.1a21.85,21.85,0,0,1-3.92,1.79l-.13.59h0l.06-.29.06-.3h0c-.08-.08-.22-.22-.39-.42-.44-.48-1.1-1.25-1.7-2s-1.12-1.36-1.31-1.64a4.4,4.4,0,0,1-.64-1.07.47.47,0,0,1,0-.21,1.89,1.89,0,0,1,.36-.77c.2-.23.44-.28.93-.17a2.4,2.4,0,0,0,1.6.07c.78-.25.82-.84.87-1.44a3.82,3.82,0,0,0-.79-1.92,5.78,5.78,0,0,0-.44-.56,2.44,2.44,0,0,0-2-.67c-.56,0-.88.44-1.21.62a1.8,1.8,0,0,1-1.2.24,2.23,2.23,0,0,1-.51-.26,2.48,2.48,0,0,1-.65-.8c-.31-.54-.57-1-.74-1.36ZM331.62,75.27a2.37,2.37,0,0,1,.69-.21l.64,0,.43,0,.15,0a2.37,2.37,0,0,0,1.17-.15h0a.05.05,0,0,0,0,0l.25-.11A2,2,0,0,0,336.27,73a4.19,4.19,0,0,0-1.64-2.83,1.82,1.82,0,0,0-.57-.22,2.08,2.08,0,0,0-1.6.33c-.51.38-.72.87-1,1s-.74.5-1.21.4h0c-.47-.11-.49-1.16-.69-2.34-.08-.48-.15-.88-.2-1.19a3,3,0,0,1-.06-.36,20.21,20.21,0,0,0,2.63-.59,9.84,9.84,0,0,0,2.7-1.09.39.39,0,0,0,.15-.26,3.33,3.33,0,0,0,.53-.4s.53-.25,0-.75h0a5.11,5.11,0,0,0-.76-.64.4.4,0,0,1-.13-.15s0-.07,0-.11a2.59,2.59,0,0,1,.2-.28,2.39,2.39,0,0,1,1.27-.67,7.86,7.86,0,0,1,1.66-.1,3.44,3.44,0,0,1,1,.14c0,.31-.07.73-.06.86a1,1,0,0,0,.32.7.66.66,0,0,0,.36.41,3.71,3.71,0,0,0,2.15.17,16.37,16.37,0,0,0,1.61-.4c2.3-.69,3.59-1.07,3.83-1.13l.07,0c.12.24.31.6.64,1.17a3.36,3.36,0,0,0,2.67,1.76,3.23,3.23,0,0,0,1.7-.66.84.84,0,0,1,.67-.33c.73,0,.91.57,1.51,1.43a1.49,1.49,0,0,1,.23,1.53,1.05,1.05,0,0,1-1.25.34c-.31-.07-.34-.1-.69-.17a1.36,1.36,0,0,0-1.47.67,1.63,1.63,0,0,0,.14,2.11s2.09,2.8,3.68,4.52l-2.76.94a21.64,21.64,0,0,1-3.52,1c-1.39.19-1.71,0-1.89-.2s0-.86,0-.86.57-1.16.29-1.76-2.07-.76-2.1-.76A6.85,6.85,0,0,0,341,75c-1.6.9-1.81,1.39-1.81,1.39a1.42,1.42,0,0,0,.09,1.58,2.45,2.45,0,0,0,1.59,1s.86.07,1.06.32a.51.51,0,0,1,.07.53s-.29.78-1.89,1.11a59.84,59.84,0,0,1-7.69,1.5,27.67,27.67,0,0,1-1.07-5.89C331.23,75.76,331.31,75.47,331.62,75.27ZM315,86.24s.4.05.34.19a1.61,1.61,0,0,1-.35.35,3.57,3.57,0,0,0-.56.57,2.2,2.2,0,0,0-.58,1.4.72.72,0,0,0,0,.2,2.47,2.47,0,0,0,2,1.83,7.72,7.72,0,0,0,3.45-.29,5.36,5.36,0,0,0,2.35-1.42,1.67,1.67,0,0,0,.5-1.56,2.75,2.75,0,0,0-.49-1.07,1.22,1.22,0,0,0-.55-.37s-.08,0-.09-.08a.07.07,0,0,1,0-.06,1.74,1.74,0,0,1,.43-.44,4,4,0,0,1,.73-.33,63.2,63.2,0,0,1,9.35-1.8h0s.43,1.73.76,2.85a22.61,22.61,0,0,1,.53,2.46.93.93,0,0,1-.27.89,3.69,3.69,0,0,1-1.21.47,2,2,0,0,1-.84-.17,3.69,3.69,0,0,0-.78-.16,4.81,4.81,0,0,0-1.93.15,2.78,2.78,0,0,0-1.82,2.61,5.62,5.62,0,0,0,.45,3.05,2.7,2.7,0,0,0,2.09,1.79,1.92,1.92,0,0,0,1.63-.89,4.4,4.4,0,0,1,.5-.63,3.53,3.53,0,0,1,2.24-.15,4.34,4.34,0,0,1,2.3,2.27,10.33,10.33,0,0,1,.61,4.53l.5.38h0l-.5-.38c-1.38.12-3,.31-3,.31a51.36,51.36,0,0,0-6.95,1.54,11.24,11.24,0,0,0-3.35,1.34.9.9,0,0,0-.1,1.23,4.15,4.15,0,0,0,.87.92c.58.45,1.05.89,1,1.11a.6.6,0,0,1-.25.32s-.81.72-4.13,1.28c0,0-2.14.42-2.8-.23s-.37-1.08-.37-1.08.05-.15.52-.45a1.33,1.33,0,0,0,.55-1.46,3.78,3.78,0,0,0-3.46-2.14,66.44,66.44,0,0,0-6.93.65h0c0-.22,0-.45,0-.7-.07-1.41-.18-3.57-.37-4.83S306.54,97,305.39,97c0,0-.57,0-1.38.75s-1.42-.6-1.46-1.4A5.45,5.45,0,0,1,302.9,94a.65.65,0,0,1,.23-.26,1.32,1.32,0,0,1,.77-.2,2.78,2.78,0,0,1,.88.4,1.18,1.18,0,0,0,1,.11,1.32,1.32,0,0,0,.29-.19,3.11,3.11,0,0,0,1-2.2,20.9,20.9,0,0,0,0-4.82h0l1.23-.21c.54-.08,1.15-.16,1.79-.23A28.31,28.31,0,0,1,315,86.24ZM300.9,72.58a1.23,1.23,0,0,1,.24-.14.41.41,0,0,0,.24-.19s.92-1.53,1.31-2.11l.33-.2a.23.23,0,0,0,.11,0,.4.4,0,0,0,.33-.1,12.17,12.17,0,0,0,1.49-1.8.38.38,0,0,0,.09-.32.49.49,0,0,0-.08-.21,1.43,1.43,0,0,1,.1-.33l0,0a26.85,26.85,0,0,1,2.59-2.67,1,1,0,0,1,.37-.13.35.35,0,0,0,.11,0A11.37,11.37,0,0,0,311,62.44a.44.44,0,0,0,.13-.23,1.91,1.91,0,0,1,.33-.56,3.26,3.26,0,0,1,1.21-.83c-.16.15-.36.33-.62.6s-.34.45-.32.54.15.09.31,0l.33-.13h0c.33-.14.81-.37,1.49-.72l0,0a.41.41,0,0,0,.55.14s.3-.16.76-.34A11.33,11.33,0,0,1,314,63s-.32.46-.56.35a1.22,1.22,0,0,0-.77-.07A2.94,2.94,0,0,0,311,64.51c-.67.9-.75,1.58-.39,1.78s.89-.07,1.2-.35a2.25,2.25,0,0,1,.54-.38.37.37,0,0,0,.18.19c0,.06,0,.11,0,.14a9.77,9.77,0,0,1-1.37,3.31c-.32.54-.72,1.34-.91,1.73h0a27.07,27.07,0,0,0-4,1c-.51.2-.52.07-.52.07s0-.24.05-.4a1.78,1.78,0,0,1,.17-.27l.14-.19a6.1,6.1,0,0,0,.78-1.45c.21-.7-.76-.6-.76-.6a2.55,2.55,0,0,0-1.63,1,4.53,4.53,0,0,0-.76,1.54,3,3,0,0,1-.16.43.86.86,0,0,1-.38.28,10,10,0,0,1-1,.33,1.66,1.66,0,0,1-.78-.13,1.22,1.22,0,0,0-.51,0Zm-.61.49h0l-.14.22.14-.22Zm-2.9,5.59v0c-.05.18-.07.29-.07.29a.48.48,0,0,0,0,.18s0,.08.08.08.11-.12.13-.06,0,.13,0,.35a18.25,18.25,0,0,1-.59,1.87c-.14.43-.3.72-.41.7a.12.12,0,0,1-.08-.06.49.49,0,0,1,0-.13.39.39,0,0,0,0-.12s-.06-.06-.12,0C296.58,80.73,297,79.69,297.39,78.66Zm-1.43,4h0a1.41,1.41,0,0,1,.07-.15s0,0,0,.08c0,.28.17.31.17.31s.23-.15.36-.36h0v0q.08-.14.15-.3a.36.36,0,0,0,0-.09c0-.09.09-.18.13-.28a.78.78,0,0,1,.05-.14,2.65,2.65,0,0,0,.11-.3l.06-.16c0-.09.06-.19.1-.28l.06-.19.05-.15c0-.12.07-.23.1-.34s0-.17.07-.25a2.17,2.17,0,0,1,.07-.24,1.74,1.74,0,0,1,.05-.22l.09-.35,0-.16a1.62,1.62,0,0,0,0-.19s0,0,0-.06h0a1.74,1.74,0,0,0,.05-.32c0-.09,0-.16-.12-.12s-.11,0-.11,0a.31.31,0,0,1,0-.09h0a8.14,8.14,0,0,1,.3-.86q.18-.48.39-.93l0-.09c.06-.14.13-.28.2-.42a0,0,0,0,1,0,0,24.06,24.06,0,0,1,1.45-2.57l.21-.05a2.41,2.41,0,0,1,.94.1,2.62,2.62,0,0,0,1.74-.42l0,0h0l.09-.06,0,0,.12-.09,0,0,.12-.11,0,0h0a2.59,2.59,0,0,0,.59-.79l.31-.84a1.79,1.79,0,0,1,.93-1.09,1.73,1.73,0,0,1,.7-.15c.28,0,.34.12.35.21a.41.41,0,0,1,0,.09,2.76,2.76,0,0,1-.5.77,3.18,3.18,0,0,0-.57,1,.9.9,0,0,0,0,.6.37.37,0,0,0,.2.21s.21.12.8-.08a32.47,32.47,0,0,1,3.75-.89h0a5.12,5.12,0,0,0-.4,2.21,1,1,0,0,0,1,.85,1.73,1.73,0,0,0,.44-.05s0,0,0,0a1.23,1.23,0,0,0,.92-.19l.11,0a2.23,2.23,0,0,1,.37,1.23,2.58,2.58,0,0,1-.87,2.06,1.45,1.45,0,0,1-.83.27,2.11,2.11,0,0,1-.8-.14,2.1,2.1,0,0,0-1.35.07,4.64,4.64,0,0,0-1.6,1.83,8.89,8.89,0,0,0-.86,3.72,17.59,17.59,0,0,0,.24,2.43l.56.37h0l-.57-.37a17.92,17.92,0,0,1-4.12.5c-1.54,0-1.5-.82-1.3-1.35A1.19,1.19,0,0,1,301,85l0,0a.76.76,0,0,1,.07-.13l0-.07a6.81,6.81,0,0,0,.64-1.49s.19-1.48-1.2-1.38a1.79,1.79,0,0,0-1.67,1.3,8.47,8.47,0,0,0-.07,1.18,3,3,0,0,1-.63,2.17,1.4,1.4,0,0,1-1.29.41s-1.13-.49-1.35-.6a.81.81,0,0,0-.49-.08C295.32,85,295.62,83.85,296,82.69Zm-1.29,17.23-.22-.32a43.59,43.59,0,0,1-.26-4.71,43,43,0,0,1,.62-7.28l.19-.43a.53.53,0,0,0,0-.12,1.19,1.19,0,0,1,.34.12,8.33,8.33,0,0,0,1.39.6,1.25,1.25,0,0,0,1-.24l.18-.16a1.58,1.58,0,0,0,.15-.12l.11-.13.21-.22,0,0a4,4,0,0,0,.45-.73.41.41,0,0,1,0,.08A1.94,1.94,0,0,0,299,86a.77.77,0,0,0,.06-.23.29.29,0,0,0,0-.09l0-.15v0c0-.26.07-.54.1-.81h0c0-.42,0-.77,0-.78h0s0-.36,0-.44v0a.7.7,0,0,1,.17-.62,1.26,1.26,0,0,1,1-.31.78.78,0,0,1,.75.32,1.12,1.12,0,0,1,.2.45.65.65,0,0,1-.06.29s-.31.53-.42.79a3.61,3.61,0,0,0-.42,1.84h0c.13.72,1.25,1.06,1.25,1.06a6.39,6.39,0,0,0,2.18,0l2.64-.42.46-.53h0l-.45.52c.06,1,.14,2.84.13,3.47s-.13,2.4-.94,2.78c0,0-.28.15-.74-.2a2,2,0,0,0-1.16-.37,1.63,1.63,0,0,0-1.43,1.11,7.94,7.94,0,0,0-.24,3c.07.77.74,2.08,1.58,2.08a1.24,1.24,0,0,0,.89-.47c.48-.49.77-.54,1-.53s.63.23.91,2.41a39.6,39.6,0,0,1,.35,5.64l.49.32h0l-.51-.33c-.27,0-.6.07-.94.1a10.77,10.77,0,0,1-3.63-.51,4.14,4.14,0,0,1-2.62-1.74s0,0,0-.07a1.87,1.87,0,0,1,0-.25v-.07a3.44,3.44,0,0,1,.06-.51,5.38,5.38,0,0,0,.11-2c0-.1,0-.2-.07-.3s0-.07,0-.09a.19.19,0,0,1,0-.07l0,0a2.65,2.65,0,0,0-1.25-1.66,2.15,2.15,0,0,0-1.38-.44s-.8-.13-.77,1.22a8.19,8.19,0,0,0,.2,1.91s.15.47-.09.53-.63-.31-.63-.31l-.41-.38-.09-.1-.5-.53.08-.19A.44.44,0,0,0,294.67,99.92Zm1.54,7.94h0a4.67,4.67,0,0,1,.73,1.47c.28.84.47,1.54.47,1.54a2.48,2.48,0,0,1,.14.64C297.05,110.31,296.6,109.09,296.21,107.86Zm4.16,9.16-.07-.26a.44.44,0,0,0-.16-.22l-.1-.08a43.55,43.55,0,0,1-2.13-4.13.06.06,0,0,0,0,0,.22.22,0,0,0,0-.09v-.09c0-.06,0-.11,0-.18s0,0,0-.06h0a14,14,0,0,0-.66-2.18,20.54,20.54,0,0,0-.91-2.18h0l0-.09h0a1,1,0,0,0-.24-.34s-.07-.08-.11-.06a42.37,42.37,0,0,1-1.26-5.73l.22.26h0c.14.17.32.35.52.57h0c.91.95,1.2.35,1.2.35a.4.4,0,0,0,0-.12v0a.74.74,0,0,1,0-.12v0c0-.05,0-.09,0-.15v0h0v-.4h0l0-.25a.78.78,0,0,0,0-.14c0-.09,0-.19-.05-.29a.43.43,0,0,1,0-.11h0a2.76,2.76,0,0,1-.09-1.44.47.47,0,0,1,.12-.18l.06,0,.14,0h.05a2.71,2.71,0,0,1,2.35,1.48,2.42,2.42,0,0,1,0,1.25,4.39,4.39,0,0,0,0,1.94,3.3,3.3,0,0,0,1.24,1.67,8.4,8.4,0,0,0,4,1.4,11.48,11.48,0,0,0,2.2,0l.63-.64h0l-.63.64c0,.16-.08.35-.12.53a5.27,5.27,0,0,0,0,2.17c.13,1,.68,3.14,1.48,3.7a3.34,3.34,0,0,0,2.47.67,2,2,0,0,0,1.2-.61.66.66,0,0,1,.58-.2,3.43,3.43,0,0,1,1.74,1.76c.6,1.21.73,2.53-.27,2.77a5.34,5.34,0,0,1-2.73-.72,1.76,1.76,0,0,0-1.78.06c-.81.6-.83,1.53-.43,2.66a16.49,16.49,0,0,0,1.28,2.7l.6.25h0l-.6-.25a18.29,18.29,0,0,1-3.44-.91c-.28-.14-.5-.21-.65-.3a.45.45,0,0,1-.18-.15.64.64,0,0,1-.07-.49,2.83,2.83,0,0,0-.64-1.55,17.26,17.26,0,0,0-1.91-1.76c-.9-.68-1.29-.48-1.29-.48s-.4.22,0,1.1a3.25,3.25,0,0,0,.73,1.18s.18.19.08.24-.41-.18-.67-.4-.6-.54-1.08-1C300.72,117.54,300.54,117.29,300.37,117Zm21.8,18c1.12.15,2.55.31,3,.36h0a1.08,1.08,0,0,1-.08.26c-.09.19.09.34.26.42C324.31,135.7,323.23,135.35,322.17,135Zm3.56.12h.12a2.31,2.31,0,0,0-.38-.27l0,0,0,0-.13-.09c-.6-.31-3.16-2-3.95-2.54a10.82,10.82,0,0,0-2-1.12l-.13-.05a1.22,1.22,0,0,0-.68-.08c-.47.15-.4.34-.68.47a.91.91,0,0,1-.81-.09h0l-.44-.22-.15-.08-.24-.13a7.92,7.92,0,0,1-1.54-1.12l-.18-.16-.44-.41c-1-1,1.35-.1,1.35-.1s.52.23.29-.32a2,2,0,0,0-.13-.23l-.09-.15-.09-.13-.15-.2-.09-.12-.18-.25-.11-.13-.2-.24-.15-.17-.18-.23-.24-.27-.12-.13-.29-.32,0,0-.54-.57c-.33-.35-.61-.65-.86-1a0,0,0,0,0,0,0,17.78,17.78,0,0,1-1.21-1.58l-.47-.54h0l0,0-.16.46a12.32,12.32,0,0,0,1.42,1.78s2.09,2.31,3.25,3.77c0,0,.06.13-.14,0a3.73,3.73,0,0,0-1.53-.48c-.47.05-.39.34-.39.34s.21,1.06,3.39,2.84a5.21,5.21,0,0,0,1.88.65s.23,0,.52-.29.38-.29.58-.23a6.56,6.56,0,0,1,1.47.94c1,.72,3,1.84,3.66,2.31a3.76,3.76,0,0,1,.47.35c-1.44-.11-3-.3-3.84-.42-.37-.14-.73-.3-1.1-.45l-.58-.35a16.74,16.74,0,0,0-1.75-.77l-.33-.12a43.24,43.24,0,0,1-4.54-2.68.9.9,0,0,0,.72,0c-.05-.48-.59-.87-.91-1.1-.11-.09-.19-.24-.3-.34a15.49,15.49,0,0,0-1.3-1,10.77,10.77,0,0,1-1.18-.7c0-.08.11-.25,0-.44a5.32,5.32,0,0,0-2-2c-.3-.19-.82-.27-1.1-.47-.21,0-.32,0-.37.13s.18.44.27.57a4.52,4.52,0,0,0,.8.94,5.35,5.35,0,0,1,.7.53h.1c-.13-.36-.51-.55-.8-.77s-.38-.53-.6-.76a.34.34,0,0,1,.07-.17c.92,0,1.52.85,1.94,1.4.18.25.48.39.5.81a.42.42,0,0,1-.24,0h-.1c.16.44.7.41,1.07.64a14.72,14.72,0,0,1,2,1.77c.22.2.61.39.67.74a2.07,2.07,0,0,1-1.07-.47l-.11-.08c-.43-.31-.85-.64-1.27-1a2.59,2.59,0,0,1-.32-.36c-.07-.08-.09-.22-.17-.29s-.22-.13-.3-.24h-.14a.47.47,0,0,0,0,.17,42.5,42.5,0,0,1-7.87-8.65l.13.11c1,.77,1.23.73,1.3.66a.08.08,0,0,0,0,0,.94.94,0,0,0-.25-.71,3.69,3.69,0,0,1-.27-.39l-.12-.19a2,2,0,0,1-.26-.57,0,0,0,0,1,0,0,.69.69,0,0,1,0-.13.2.2,0,0,1,0-.11v0c.12-.29.26-.26.26-.26s.12,0,.51.25a11,11,0,0,1,1.7,1.44,1.6,1.6,0,0,1,.4,1v.08a1.31,1.31,0,0,0,.38.92c.47.51,1.47,1.44,5,2h.05l.16-.46h0l.47.55h0a45,45,0,0,0,4.68.47s4,.14,5.06.14c.91,0,.9.41.88.53a.1.1,0,0,1,0,0,2.24,2.24,0,0,1-.19.54,2.72,2.72,0,0,0-.25,1,1.08,1.08,0,0,0,.13.67s.5,1.2,3.7,1.29a12.31,12.31,0,0,0,4.77-.58c.62-.25.87-.54.92-.81.11-.59-.72-1.12-.72-1.12s-.68-.41-1-.63a.36.36,0,0,1-.17-.29.56.56,0,0,1,.07-.24,1,1,0,0,1,.47-.42,23,23,0,0,1,4.54-1.45,29.52,29.52,0,0,1,5.57-1h0a5.36,5.36,0,0,0,1.1,1.82,6.46,6.46,0,0,0,2.44,1.44c1,.39.56,1.09.56,1.09-.59,1.27-2.33,1.31-2.84,1.38s-1.58.16-2.58.37a4.45,4.45,0,0,0-2.5,1c-.56.65-.34,1.32,0,2a2.36,2.36,0,0,0,2.41,1,6.87,6.87,0,0,0,2.71-.72c.73-.31,2-.68,2.38-.79s.89-.33,1.27.22a8.76,8.76,0,0,1,1,2.08l.47-.11h0l-.22,0a.91.91,0,0,0-.21.05,22.58,22.58,0,0,0-2.73.9,34.14,34.14,0,0,1-5,1.21s-1.09.13-1.79.3l.15,0s.81-.16,1.62-.27a8.3,8.3,0,0,0-2.34.53.26.26,0,0,0,0,.26.4.4,0,0,0,.2.17,3.37,3.37,0,0,0,1.41.24,1.89,1.89,0,0,1,.4,0h0v0h0l-.06,0-.14,0a10.36,10.36,0,0,1-2.35.48c-1.08.13-1.42.07-1.54,0h0c-.07,0-.06-.06-.06-.06V136l.06-.13a.17.17,0,0,0,0-.1.46.46,0,0,0-.27-.36,1.29,1.29,0,0,0-.23-.09l0,0a4.6,4.6,0,0,0-1.35-.15c-1.19,0-3.56,0-5.78-.11A.7.7,0,0,0,325.73,135.09Zm5.23,2.06c-.73-.1-1.46-.22-2.19-.35a3.69,3.69,0,0,1,1.11,0,7.86,7.86,0,0,1,1.14.29S331,137.15,331,137.15Zm8.68.31c.58-.08,1.27-.13,1.66-.17a2.66,2.66,0,0,1,.35,0C341,137.35,340.31,137.41,339.64,137.46Zm3-.31a1.07,1.07,0,0,0-.44-.07c-.24,0-.48,0-.73,0a9.19,9.19,0,0,0-1.24.08l-.83.13-.25,0a3,3,0,0,0-.9.2c-.47,0-1,0-1.43,0a42.39,42.39,0,0,1-5.05-.31c.05-.05-.06-.12-.14-.15l-.08,0-.22-.08h0l0,0h0l-.32-.1h0l-.33-.08h0c-.26-.06-.56-.11-.93-.16h0c-.19,0-.4,0-.62-.06a8.55,8.55,0,0,0-1.27,0h-.09l-1.31-.3c-.24-.1-.59-.28-.45-.47a.39.39,0,0,0,.06-.42l2.15.12s2.52.09,3.9,0c.62-.05.42.27.42.27a.3.3,0,0,0,.18.45s.65.37,2.82.13,2.66-.73,2.66-.73.25-.23-.3-.33l-.09,0h-.94l-.32,0-.13,0c-.21-.06-.24-.13,0-.19a7.08,7.08,0,0,1,1-.15s1.9-.27,3.44-.66c0,0,1.64-.39,3.26-1,.64-.23,1.18-.39,1.6-.51l.37-.54h0l-.37.54a1.07,1.07,0,0,1-.21.94c-.13.22-.5.5-.32,1s1.43.34,2.15.12,1.32-.42,1.8-.59.61.07.61.07.21.15-.49.52a2.93,2.93,0,0,1-.53.21l-.08,0-.48.13-.13,0-.4.08-.16,0-.32.05-.17,0-.31,0a.72.72,0,0,1-.19,0h-.35l-.1,0h0a5.77,5.77,0,0,0-.69.22c-.92.31-.06.59-.06.59a8.49,8.49,0,0,0,1.28.23A38.35,38.35,0,0,1,342.68,137.15Zm17.44-6.61-.05.06a42.61,42.61,0,0,1-12.58,5.58c-.41,0-.69-.08-.84-.1-.36-.05-.65-.12-.74-.31a.13.13,0,0,1,0-.06c0-.12.41-.11.41-.11h0l.21,0a16.85,16.85,0,0,0,2.06-.42l.47-.14c1.32-.43,1.64-.83,1.58-1.13a.15.15,0,0,0-.06-.11l0,0-.1-.05h-.06l-.18,0h0l-.25,0h0a3.4,3.4,0,0,0-.76.17c-.8.26-2,.64-2.25.7l-.21,0h0a.84.84,0,0,1-.28,0h0a.32.32,0,0,1-.18-.12h0a.59.59,0,0,1,.13-.76,1.23,1.23,0,0,0,.34-.59,2,2,0,0,0,0-.43s0-.07,0-.11a.53.53,0,0,0,0-.13l.09,0s1.95-.46,2.76-.59a18.62,18.62,0,0,0,3.46-.92c.79-.38,1.18-.68,1.27-.91s-.33-.36-.33-.36-.5-.12-.43-.29.25-.32,1-.67a16,16,0,0,1,2.72-1c1-.24.62.16.62.16a4.55,4.55,0,0,0-.66.83c-.07.23,0,.24.1.28a2.11,2.11,0,0,0,.87,0,32.39,32.39,0,0,0,4.51-2l.12-.06.33-.55h0l-.05.08a12.06,12.06,0,0,0-.67,1.2,2.77,2.77,0,0,0-.26.73c0,.27-.22.23-.22.23a2.48,2.48,0,0,0-1,.23l0,0-.07,0a4.74,4.74,0,0,0-.61.37l-.12.08-.07,0a12.77,12.77,0,0,0-1.29,1.22s0,0,0,0l-.19.23s-.36.48,0,.48a3.4,3.4,0,0,0,1.48-.7C360.28,130.31,360.12,130.54,360.12,130.54Zm7.47-6.32a9.78,9.78,0,0,1-.82.85l-.19.22h0s0,0,0,0h0a1.23,1.23,0,0,0-.17.25,42.3,42.3,0,0,1-5.76,4.65c.05-.07.06-.12,0-.14h0c-.11-.08-.53.22-.53.22l-.16.12h0a4.91,4.91,0,0,1-.44.28l-.14.06-.09,0-.17,0c-.33,0,.41-.74.41-.74a4.49,4.49,0,0,1,.95-.78,1.73,1.73,0,0,1,.54-.21,2.11,2.11,0,0,0,1.22-.58,1.18,1.18,0,0,0,.3-.33c.18-.27.37-.69.86-1.58a1.09,1.09,0,0,1,.08-.15h0c.94-.52,1.27-.68,1.49-.82,1-.59,2.19-1.32,2.5-1.56C367.5,124.06,368.14,123.62,367.59,124.22Zm6-7.78c.26-.56.47-1.15.73-1.73a4.36,4.36,0,0,0,.6-2,.71.71,0,0,1-.1-.14h-.2c-.21.18-.49.25-.71.41s-.64.55-1,.8a1.83,1.83,0,0,0-.46.37c-.17.25-.14.68-.34.9v.13c.27-.09.39-.41.6-.57s.48-.45.74-.63.35-.18.5-.31.1,0,.17.07a5.3,5.3,0,0,1-.74,2.08c-.08.18-.1.46-.23.6s-.2.08-.27.13l-.67.74c-.21.29-.31.68-.53,1a.51.51,0,0,0,0,.23.54.54,0,0,0,.13.07,11.34,11.34,0,0,0,1-1,43.28,43.28,0,0,1-4.94,6.38,1.34,1.34,0,0,1,.11-.14.21.21,0,0,1,0-.06c.26-.36.08-.34.08-.34a.47.47,0,0,0-.22.06l-.08,0,0,0h0a3.59,3.59,0,0,0-.5.28l-1.16.73-2.37,1.37h0l0,0,0,0a20.35,20.35,0,0,1,2.05-2.61,22.09,22.09,0,0,0,1.6-2.13,5.14,5.14,0,0,0,.57-1.37.33.33,0,0,0,0-.15l0,0a.15.15,0,0,0-.07,0c-.2,0-.63.19-1.3.69a12.68,12.68,0,0,1-1.51,1l-.05,0,.05,0a2.07,2.07,0,0,1-.67.21.65.65,0,0,1-.79-.61,2.2,2.2,0,0,1,0-.58,2.35,2.35,0,0,1,.9-1.66,6.11,6.11,0,0,1,2.14-.44,2.46,2.46,0,0,0,.91-.26,6.06,6.06,0,0,0,1.69-1.74,10.15,10.15,0,0,0,1.34-4.59v-.06c0-.17,0-.33,0-.48a.88.88,0,0,0,0-.17,3,3,0,0,0,0-.33l0-.13a3.35,3.35,0,0,0-.09-.37h0a36.93,36.93,0,0,0,3.27-3,12.15,12.15,0,0,0,1.6-2l.1-.16s0,0,0,0a.17.17,0,0,1,.06-.06h0s0,0,0,0v.09h0a4.51,4.51,0,0,0-.28,1.82v0h0s0,0,0,0a2,2,0,0,0,.05.36l0,.1a.66.66,0,0,0,.16.31h0l.05,0c.37.26,1.27-.69,1.27-.69a4.32,4.32,0,0,0,.82-1.75,5.68,5.68,0,0,0,.19-1.71.48.48,0,0,0,0-.19.93.93,0,0,1-.07-.72l.05-.14a14.56,14.56,0,0,1,1.56-3.16A42.06,42.06,0,0,1,373.63,116.44Zm-.78.68a1.13,1.13,0,0,1-.54.77v0h0c.06-.4.36-.51.5-.8Zm2.54-11.58c0,.13-.06.23-.06.23a.12.12,0,0,0,0,0v0S375.36,105.67,375.39,105.54Zm4.07-8-.21.34a.42.42,0,0,0,0,.38l.1.22,0,0h0l0,.06c-.16.24-.34.55-.58.93a8.88,8.88,0,0,0-1.24,3.19,3.15,3.15,0,0,0,0,.87.71.71,0,0,0,0,.17v0s0,.09.05.13h0a1.12,1.12,0,0,1,.05.13v0s0,0,0,.06a1.85,1.85,0,0,1-.06.45.39.39,0,0,1,0,.14.53.53,0,0,1,0,.12,1.9,1.9,0,0,1-.09.29s0,.07,0,.11a2.52,2.52,0,0,1-.15.34l0,0a2.25,2.25,0,0,1-.68.87s-.64.46-.73.13a1.9,1.9,0,0,1,0-.81,12.35,12.35,0,0,0,.21-1.75c0-.42-.4-.09-.4-.09s-.09.1-.25.31-1.09,1.39-1.44,1.8a24.54,24.54,0,0,1-3.63,3.32h0l0,0a2.21,2.21,0,0,0-.22-.32l-.22-.28c-.24-.31-.68-.17-1.21-1.46a7.86,7.86,0,0,1-.65-3.14c0-.11,0-.21,0-.3a1.72,1.72,0,0,1,.58-1.37c.35-.32,1.88-.18,1.88-.18s.75.16,1.43-1a5.48,5.48,0,0,0,.53-3,5.83,5.83,0,0,0-.13-.86c-.21-.91-.53-1.7-1.77-1.83s-1.81,1.41-1.81,1.41a5.37,5.37,0,0,1-.51.92c-.27.33-1,.24-1,.24a1,1,0,0,1-1.07-.69c-.37-.76-1.22-2.77-1.22-2.77a11.31,11.31,0,0,1-.58-1.74l-.61-.25h0l.61.24a22.56,22.56,0,0,0,3.39-2.22c1.58-1.33,3.12-2.73,3.52-3.08a1.84,1.84,0,0,1,1.1-.62c.35,0,.62.27.84,1.22s.26,1.72.36,2.18.24,1,.78,1.1a2.32,2.32,0,0,0,1.56-.6,1.47,1.47,0,0,0,.24-.28l0,0,.11-.18A2.91,2.91,0,0,0,376.5,89a5.69,5.69,0,0,0-.65-2.64s-.29-.52-.4-.67a.36.36,0,0,1,0-.44l.12-.21a2.27,2.27,0,0,1,.78-.76,3.85,3.85,0,0,1,1-.33,2.7,2.7,0,0,0,.53-.22h0v0c.44,1.39,1,3.7,1,3.7a7.49,7.49,0,0,1,.17,1c0,.31,0,.32-.19.16a.2.2,0,0,0-.28-.07s-.15.07-.15.66.07,2,.19,3.05a3.78,3.78,0,0,0,.52,1.81s.35.52.44-.49a.31.31,0,0,0,0-.09c0,.46.05.93.05,1.39C379.54,95.76,379.51,96.67,379.46,97.58Z"/><path class="cls-13" d="M313.58,126.06l.13.15v0Z"/><polygon class="cls-13" points="339.98 120.7 339.98 120.7 339.98 120.7 339.98 120.7"/><path class="cls-13" d="M358.54,119.06c-1-.24-1.8.24-2.81.17a1.07,1.07,0,0,1-.24-.31c-.7,0-1.48,1.6-.77,2.08a3.46,3.46,0,0,0,1.94,0,1.23,1.23,0,0,1,.87,0c.28.21.23,1,.13,1.44l-.33,2.48-.3,1.5a1.46,1.46,0,0,0,1.14-.9,6.73,6.73,0,0,0,.1-.67c.18-.7.2-1.54.37-2.27.1-.48,0-.93.13-1.38a6.35,6.35,0,0,0,0-1.74A1.34,1.34,0,0,0,358.54,119.06Z"/><path class="cls-13" d="M311.15,62.87v-.06H311c-.15.11-.57.18-.77.3,0,.11,0,.08.1.13-.11.33-.5.57-.7.84-.31.42-.66.81-1,1.23a2.51,2.51,0,0,1-.3.47c-.2.18-.77.16-1,.34h-.07a5.65,5.65,0,0,1,1-1.38v0a1.79,1.79,0,0,0-.83.4c0,.08,0,.06.1.1-.13.2-.31.35-.44.54s-.26.5-.43.73l0,.1a5.81,5.81,0,0,0,1.24-.4h.1a8.33,8.33,0,0,1-.91,1.34,2.47,2.47,0,0,1-.4.64l0,0a2.18,2.18,0,0,0,.8-.2.2.2,0,0,1,.1,0,3.94,3.94,0,0,1-.5.94v0a1.26,1.26,0,0,0,.53-.13c.33-.25.4-.79.64-1.14a1,1,0,0,0,0-.17,1.25,1.25,0,0,0-.73.14h0a6,6,0,0,1,1-1.48c.38-.54.74-1.07,1.13-1.6.21-.28.5-.53.7-.8A4.32,4.32,0,0,1,311.15,62.87Z"/><path class="cls-13" d="M320.41,118.86c-.05.11-.05.3-.1.43-.29.71-.38.86.07,1.54a.44.44,0,0,0,.33-.1C320.84,120.17,320.87,119.12,320.41,118.86Z"/><path class="cls-13" d="M321.82,118.26c-.14-.23-.42-.29-.61-.47l-.06,0c.43-.23.89-.47,1.33-.67.13.13.68.67.87.56a.29.29,0,0,0,.1,0l0-.57a3.38,3.38,0,0,0-1.74-.9v0h0a1.13,1.13,0,0,0,.53.57v.1a6.46,6.46,0,0,0-1.1.37,3.2,3.2,0,0,0-.74.2h-.1c.15-.4.62-.73.87-1.07a5.2,5.2,0,0,1,1.64-1.84c0-.31-.91-.94-1.24-.73-.08,0,0,0-.06.06s.11.27.06.47a7,7,0,0,1-.87,1.6v0c-.34-.12-.6-.44-.93-.6a2.19,2.19,0,0,1,.46-.77,4.69,4.69,0,0,1,1.28-1.51c0-.44-.73-.91-1.21-.9,0,.2.11.32.07.5a9.74,9.74,0,0,1-.57,1.57,3,3,0,0,1-.4.9,1,1,0,0,1-.5-.06,1.13,1.13,0,0,0-.34,0v.07a6.07,6.07,0,0,0,1.94,1.07c-.1.55-.66.92-.93,1.34a.56.56,0,0,1-.34-.07l-.13,0a1.1,1.1,0,0,0,.83,1,2.67,2.67,0,0,1,1-.63,3.28,3.28,0,0,1,.64,1.6c.06.28,0,.59,0,.83a2.53,2.53,0,0,0,.57.87h.23a4.51,4.51,0,0,0-.4-2.17C321.93,118.79,321.87,118.52,321.82,118.26Z"/><path class="cls-13" d="M330.24,133a6.12,6.12,0,0,1,.7.47,4.23,4.23,0,0,0,2.68.4c.48-.1,1-.1,1.1-.53.15-.24-.06-.57-.13-.7a3.59,3.59,0,0,0-1.24-1.27,12.17,12.17,0,0,0-7.12-2.27c-.14.09-.43,0-.6.06a1.93,1.93,0,0,0-.57.3c0,.82,1.22,1.27,1.91,1.44a1.7,1.7,0,0,0,1-.17c.18-.69-.66-.79-1-1.14h-.07v0a9.06,9.06,0,0,1,6,1.71,3,3,0,0,1,1,1.1.71.71,0,0,1,0,.57c-.14.37-.58.34-1,.44a3.65,3.65,0,0,1-2.77-.77c-.1.16,0,.4-.1.57-.15.4-.67.3-1.14.4a4,4,0,0,1-2.44-.54c-.13-.08-.22-.24-.34-.33a.37.37,0,0,0,0-.17,1.43,1.43,0,0,0,.2-.23,2.25,2.25,0,0,1,2,.5c0,.07,0,.06,0,.1s-.2.14-.4.13v.06a1.15,1.15,0,0,0,.7-.16c0-.07,0-.14,0-.2a2.41,2.41,0,0,0-.34-.37,2.43,2.43,0,0,0-2.3-.13.88.88,0,0,0,.46.93,4.94,4.94,0,0,0,1.78.87c.24.07.46,0,.73.06a2.15,2.15,0,0,0,.91,0c.42-.1,1-.55.53-1.07v0Zm-3.08-3.17c.12.08.19.24.31.33s0,.13,0,.17c-.22.59-1.44.15-1.74-.07-.09-.07-.13-.21-.2-.3s0-.06,0-.09c.09-.26.35-.18.57-.3A1.89,1.89,0,0,1,327.16,129.83Z"/><path class="cls-13" d="M338.94,136.45l0-.1-2.47-.1c-.11.07-.27,0-.4.07a3.39,3.39,0,0,0-.51.2c0,.06,0,0,0,.06a2.65,2.65,0,0,0,1.6,0h.07v-.06c-.35-.11-1,.17-1.27,0h0v0c.88-.06,1.88,0,2.81,0-.09.06-.28,0-.37.1l-.1,0v.07l.6.1,0,0a1.75,1.75,0,0,1-1.33,0v-.07a3.14,3.14,0,0,0-1,.1c-.12,0-.23,0-.31,0a.42.42,0,0,0-.23.07.34.34,0,0,0,.07.17c.21,0,.59,0,.83.13v0h0v0c-.13-.05-.48,0-.61-.09h-.06a2.82,2.82,0,0,1,1.4-.1c.06,0,0,0,.07,0l-.54.1s0,0,0,.06a.49.49,0,0,0,.26,0,.26.26,0,0,1-.1.13.16.16,0,0,1,0,.07,5.61,5.61,0,0,0,1.27-.14c.24-.05.53,0,.7-.06h.27v-.07a6.08,6.08,0,0,0-1.87.13h-.1l0,0c.13-.15.4-.08.63-.13s1-.24,1.31,0c.09,0,0,0,0,.1a.85.85,0,0,0,.2,0h.24v-.07a4,4,0,0,1-1-.37C339.13,136.59,339.19,136.47,338.94,136.45Z"/><path class="cls-13" d="M375.26,110.4a3,3,0,0,1-.44.23,6.26,6.26,0,0,0-1.17,1.24c-.24.34-.45.71-.67,1.07a2.28,2.28,0,0,1-.23.47v.07a1.82,1.82,0,0,0,.67-.37c.56-.35,1.05-.66,1.57-1,.25-.18.43-.46.7-.64,0-.4.11-.71-.07-1A1.86,1.86,0,0,0,375.26,110.4Zm-.4,1.2c-.21.15-.4.36-.61.5a4.79,4.79,0,0,0-.53.34h0a3.34,3.34,0,0,1,1-1.14c.14-.1.32-.13.47-.23h.13l.06.06C375.29,111.39,375,111.48,374.86,111.6Z"/><path class="cls-13" d="M358.2,130.16h-.33c-.22.18-.59.2-.84.34a7.31,7.31,0,0,0-.7.43c-.18.13-.28.36-.44.5,0,.17,0,.2.14.24l.06,0s.07,0,.1-.1,0-.09,0-.2a2.85,2.85,0,0,1,1-.7c.13,0,.38-.2.54-.1h.07a4.1,4.1,0,0,1-1,1.5v.1c.62-.16,1-1.39,1.44-1.84a.35.35,0,0,0,0-.13Z"/><path class="cls-13" d="M374.59,96.18a1.52,1.52,0,0,0,.37.61c.07,0,.11,0,.17.1,1.1.09,1.55-1.82,1.1-2.91-.08-.19-.44-.75-.77-.54h-.07c0-.06,0,0,0-.07a.51.51,0,0,0-.07-.3l-.2,0s0,0-.06,0c0,.21.09.21.1.44A2.59,2.59,0,0,0,374.59,96.18Zm.37-1.77a1.76,1.76,0,0,1,.33-.43c.07,0,.06,0,.1,0a.71.71,0,0,1,.47.14,2.32,2.32,0,0,1-.13,2.11c-.07.07-.2.09-.27.16C374.76,96.3,374.7,95,375,94.41Z"/><path class="cls-13" d="M377.33,96v-.53c-.08-.38-.05-.89-.13-1.27a12.39,12.39,0,0,0-.3-2.24,2.27,2.27,0,0,0-.57-.07c-.09.09-.15.13-.13.24.07.3.46.36.57.66l0,.44c.11.47.09,1.09.2,1.57v.4a3.63,3.63,0,0,1,.07,1.07,3,3,0,0,1-.74.91,4.31,4.31,0,0,1-2.51,1.57.16.16,0,0,1,0,.06c0,.42.4.34.67.51l.2,0c.1-.06.16-.2.23-.3s.48-.34.64-.57h0c0,1,0,2.17,0,3.15h.1a15.52,15.52,0,0,0,.21-3.42c.43-.41.72-1,1.17-1.4v-.07h0c0,1.06,0,2.14,0,3.21a6.29,6.29,0,0,0,0,1.31v.2h.07c.09-.36.11-.87.2-1.27v-.57a5.26,5.26,0,0,0,0-1.77C377.28,97.19,377.44,96.51,377.33,96Z"/><path class="cls-13" d="M355.53,132.64c-.2.17-.68.19-.91.37h0c.09-.13.25-.18.34-.3a1.75,1.75,0,0,1,.16-.27.2.2,0,0,0,0-.1v-.07a5,5,0,0,0-3.11,1.11c-.13.11-.21.28-.34.4a.88.88,0,0,0,0,.2c.59,0,1.7-.32,1.83-.8,0,0,0,0,0,0v-.07a1.82,1.82,0,0,0-1.2.3h0a3.44,3.44,0,0,1,1.47-.77c.14,0,.46-.12.6,0l.1,0a1.41,1.41,0,0,1-.87.8v.07A9.76,9.76,0,0,0,355,133a5.83,5.83,0,0,0,.94-.34,4.43,4.43,0,0,0,.9-1.27C356.06,131.45,356,132.22,355.53,132.64Zm-2.65.67v.1c-.06,0-.1.13-.16.16s-.41.09-.57.21-.1,0-.13,0h0C352.07,133.45,352.62,133.32,352.88,133.31Z"/><path class="cls-13" d="M359.44,107.58c-.38-.23-.43-1.41-.57-1.93-.27-1-.41-2.11-.7-3.15a5.84,5.84,0,0,1-.37-2.18c.12-.11.2-.27.34-.36s.49-.2.63-.37,0-.11,0-.2a4.61,4.61,0,0,0-1.07.43c-.67.29-1.33.46-2,.74a2.16,2.16,0,0,1-.7.26V101l.06,0s.88-.33,1.14-.1.26.5.44.74a8.18,8.18,0,0,1-.77,1.77c-.5,1.12-1,2.19-1.54,3.24a8.11,8.11,0,0,1-.74,1.44v0c-.18-.25-.16-.89-.26-1.23-.3-1-.49-2.19-.8-3.21a3.09,3.09,0,0,1-.14-1.27c0-.46.7-.67,1.07-.81a2.08,2.08,0,0,0,0-.23,9.16,9.16,0,0,0-1.74.6c-.5.19-1,.27-1.47.44a3.66,3.66,0,0,1-.83.26v0h0a.4.4,0,0,0,.07.2c.14.09.87-.3,1.17-.06.47.16.48.9.64,1.4.4,1.33.61,2.81,1,4.18.1.34.33,1.42.1,1.71s-.75.52-1.1.67a1.62,1.62,0,0,0,0,.2,8.39,8.39,0,0,0,1.44-.48c.9-.3,1.75-.55,2.61-.87l0-.23a3.58,3.58,0,0,1-1.18.2l-.19-.17c-.06-.17-.12-.35-.17-.53a5.87,5.87,0,0,1,.77-1.57c.57-1.1,1.06-2.2,1.56-3.35a6.87,6.87,0,0,0,.71-1.56c.15.09.11.37.16.56.12.41.18.83.3,1.27.24.85.33,1.76.57,2.65a2.14,2.14,0,0,1,.07,1.23c-.15.35-.71.57-1.07.7a.58.58,0,0,0,.07.21l.9-.3c.93-.4,1.89-.81,2.84-1.17l0-.24C360.31,107.48,359.77,107.79,359.44,107.58Z"/><path class="cls-13" d="M344,70.23c.16.08.16.28.24.43a6.91,6.91,0,0,1,.47,1V72c.08.21.33.24.5.37a.66.66,0,0,0,.27-.1,5.57,5.57,0,0,0-.67-1.68,2.29,2.29,0,0,1-.2-.53c0-.09.05-.14,0-.23s-.06-.08-.13-.14,0,0,0-.06.18-.25.23-.37c.11-.27.11-.49.34-.64,0-.34-.54-.38-.94-.36a.59.59,0,0,1-.2.06.18.18,0,0,0,.17.13,3.91,3.91,0,0,1-1,2.48c-.18.23-.47.38-.64.64h0v0A4.33,4.33,0,0,0,344,70.23Z"/><path class="cls-13" d="M337.33,70.7l.51.17a1,1,0,0,0,.36,0c0-.55-.31-.77-.5-1.13a1.72,1.72,0,0,0-.3-.57c.06-.21.61-.26.84-.34l1.7-.53a3.33,3.33,0,0,0,.77-.2c.13,0,.19,0,.24.1a4.74,4.74,0,0,1,.13,1.77,6.42,6.42,0,0,1-1.64,3.35v0c.33,0,.48-.37.7-.53A5.15,5.15,0,0,0,342,69.86c.19-.73-.12-1.44.17-2.07h0a2.49,2.49,0,0,0-1.18-.47,2,2,0,0,1-.53.44c-.31.13-.71.09-1,.26a.47.47,0,0,1-.27-.66.37.37,0,0,0,0-.14,2.11,2.11,0,0,0-1.07-.13c-.12.1-.22.13-.27.3h0c0,.07,0,0,0,.07s.14,0,.2,0c.38,0,.37.48.57.7,0,.06,0,0,0,.07a8.74,8.74,0,0,1-1.31.44c-.16,0-.35-.06-.47-.07a1.17,1.17,0,0,0-.7.23c.09.14.37.1.47.24C336.85,69.57,337,70.18,337.33,70.7Z"/><path class="cls-13" d="M340.41,84.81c.67.2,1.15,1,1.53,1.47.17.23.44.41.61.64.71,1,1.52,1.81,2.24,2.78.27.37.65.69.9,1.1a.41.41,0,0,0,.27-.07c.18-.78.27-1.58.5-2.37a6.66,6.66,0,0,0,.26-1.21c.28.1.5.52.68.74.52.69,1.26,1.27,1.73,2a.46.46,0,0,0,.24-.07c.15-1.14.29-2.27.44-3.41v-.33c.15-.68.11-1.5.26-2.18.21-.92-.08-1.81.84-2,0-.09,0-.12,0-.2a.24.24,0,0,0,0-.07l-.1,0a4.78,4.78,0,0,1-1.31.4c-.26.07-.53,0-.73.13l-.1,0,0,.2c.38.12.74,0,.9.3a3.15,3.15,0,0,1,0,1.27c-.21,1-.13,2.11-.34,3.08-.07.33,0,1-.13,1.23v.07c-.2-.1-.34-.36-.47-.53-.3-.4-.74-.71-1-1.11a4,4,0,0,0-.6-.7A9.93,9.93,0,0,1,347.4,84a3.84,3.84,0,0,1,.33-1.17,1.74,1.74,0,0,1,.64-.4.29.29,0,0,0,0-.17.29.29,0,0,1,0-.1,10.62,10.62,0,0,0-1.28.41,5.29,5.29,0,0,0-1.07.23c0,.08,0,.09,0,.13a.29.29,0,0,0,0,.1c1.17-.06,1,.57.77,1.47-.07.28,0,.66-.17.87v.07h0a9,9,0,0,0-.9-1l-.37-.33a3.37,3.37,0,0,0-.24-.37c0-.37.32-.46.61-.57a.61.61,0,0,0-.1-.27,23.66,23.66,0,0,1-2.61.67v0h0a.31.31,0,0,0,0,.16v.07a3.39,3.39,0,0,1,.7,0,2.42,2.42,0,0,1,.9.84c.33.43.84.8,1.17,1.24a3.36,3.36,0,0,0,.6.7,8.79,8.79,0,0,1-.33,1.74c-.07.27,0,.62-.17.83s0,0,0,.07a12.9,12.9,0,0,0-1.34-1.6c-.78-1-1.64-2-2.44-3a.43.43,0,0,1,.07-.3.64.64,0,0,1,.53-.4c0-.11,0-.12,0-.21a.3.3,0,0,1,0-.1,19,19,0,0,0-1.94.61c-.33.09-.78,0-1,.23l-.1,0a.49.49,0,0,0,.1.23A2.68,2.68,0,0,1,340.41,84.81Z"/><path class="cls-13" d="M372.08,81.27c-.08,1.16-1.08,1.53-2.14,1.07a5,5,0,0,1-1.84-1.68c-.16-.21-.41-.38-.57-.6a4.41,4.41,0,0,0-.44-.6v0H367a7.66,7.66,0,0,0,.43,1,6.63,6.63,0,0,0,2.38,3c.51.37,1.37.94,2.11.41,1.29-.93.66-4.39.13-5.69-.14-.34-.25-.61-.4-.9-.26-.49-.52-1.2-1.24-1.2a1.41,1.41,0,0,0-.47.5c-.66,1.49.69,3.16,1.31,4A2.56,2.56,0,0,0,372.08,81.27Zm-1.34-3.65h.17a3.88,3.88,0,0,1,.84,1.14,6.26,6.26,0,0,0,.26.9c0,.06,0,0,0,.07s-.46-.35-.54-.44C371.07,78.92,370.32,78.26,370.74,77.62Z"/><path class="cls-13" d="M304.26,77.92c.52-.53,1.62-1.87,1.6-2.87a.86.86,0,0,1-.13-.2,3,3,0,0,0-.77-.07,4.91,4.91,0,0,1-.34.73c-.22.52-.42,1-.63,1.54a7.67,7.67,0,0,1-.54,1.44v.07C303.81,78.5,304.05,78.14,304.26,77.92Zm.13-1.06c.2-.48.34-1,.57-1.38a.6.6,0,0,1,.3.07c.08,0,0,0,.07.07s-.15.43-.24.57-.23.5-.4.73-.39.38-.53.6h0A2.61,2.61,0,0,1,304.39,76.86Z"/><path class="cls-13" d="M301.18,78.59h.47l.23-.3a7,7,0,0,0,.87-.94h.1v.47a2.7,2.7,0,0,0-.77.94V79c-.17.75.19,1.13.84,1.07.42-.39,1.12-.71,1-1.5l0,0a.2.2,0,0,0-.1,0c-.24.13-.65,1.21-1.14.9a.47.47,0,0,1-.4-.13,2.2,2.2,0,0,1,.77-1,8.93,8.93,0,0,0,.1-1.53l-.1,0c-.12,0-.21.14-.3.24a5.13,5.13,0,0,0-.74.8,5.38,5.38,0,0,0-1.37.1h-.1c.09-.22.73-.93.54-1.24l0-.1c-.61,0-1.34,1.09-1.54,1.54a2.94,2.94,0,0,1-.23.67v0l1.37-.17C300.82,78.59,301.06,78.67,301.18,78.59ZM300,78h-.2a1.07,1.07,0,0,1,.9-.81v.17l-.46.6A.42.42,0,0,0,300,78Z"/><path class="cls-13" d="M317.53,100.43v0c.06.08.05.23.1.31a.16.16,0,0,1,0,.06c-.14.1-.34,0-.54.1-.39.1-1.67.41-2,.13a.6.6,0,0,1-.33-.53c-.09,0-.13,0-.17,0h-.07c.13.65.25,1.3.37,1.94h0v0l3.52-.61-.51-1.84c-.09-.14-.39-.12-.56-.2a2.22,2.22,0,0,1-.84-.63,5.07,5.07,0,0,1-.74-3.81,2.86,2.86,0,0,1,2.15-2.08,2.28,2.28,0,0,1,1.53.24,3.35,3.35,0,0,1,1.78,2.5c.4,1.6-.11,3.06-1.17,3.55.06.64.13,1.29.2,1.94a4.62,4.62,0,0,0,1-.17c.54-.13,1.08-.15,1.58-.26s.89,0,1.17-.21a6.47,6.47,0,0,0-.27-1.37c-.05-.19,0-.39-.1-.53V99l-.24,0c0,1-.7.88-1.5,1.08a6.36,6.36,0,0,1-1.34.23v-.44c0-.06.63-.32.73-.4a4,4,0,0,0,1-1.1,4.13,4.13,0,0,0,.4-1,3.2,3.2,0,0,0,0-1.41,6.17,6.17,0,0,0-.14-.77,3.67,3.67,0,0,0-2.07-2.14,8.31,8.31,0,0,0-1.44-.3,4.29,4.29,0,0,0-1.6.2,4.24,4.24,0,0,0-3.21,2.81,3.85,3.85,0,0,0,0,2A3.39,3.39,0,0,0,317.53,100.43Z"/><path class="cls-13" d="M322.32,118.42c-.07.29.64.94.86,1.11s.27.28.44.2l.17,0c0-.09.09-.21,0-.3C323.8,119,322.71,118.5,322.32,118.42Z"/><path class="cls-13" d="M330.08,120l.1,0c0-.43-.86-.62-1.31-.49-.2,0-.43.18-.63.23l-.47,0c-.06-.54-.32-1-.34-1.53a3.75,3.75,0,0,0,1.47-.27.32.32,0,0,0-.1-.27,2.06,2.06,0,0,0-1.33.1c-.09,0-.13,0-.17,0-.19-.24-.1-.72-.27-1v-.14c.36-.07,1-.14,1.14-.4a.16.16,0,0,0,0-.06.33.33,0,0,1-.06-.1,1.67,1.67,0,0,0-1.21.13c-.14-.45,0-.81-.43-.94.1-.17.43-.16.63-.23a6.56,6.56,0,0,0,1-.4c0-.06,0,0,0-.07s-.07-.16-.14-.27a1.41,1.41,0,0,0-1.13.27h-.07a2.2,2.2,0,0,1,.34-.8c.09-.14.26-.12.33-.3h0v0c-.06-.08-.13-.18-.2-.26s-.38-.12-.53-.24a1.37,1.37,0,0,0-.57.07,2.62,2.62,0,0,0,.1.3,3.43,3.43,0,0,1-.37,1.57,3.45,3.45,0,0,1-1.64.47,1.82,1.82,0,0,1-.36-.2s0,0,0-.07c.48-.45.82-1.44,1.47-1.64a.94.94,0,0,0,0-.16c-.17-.17-1-1-1.37-.74l-.1,0c0,.29.14.5.06.8a6.73,6.73,0,0,1-.8,1.81c-.18.3-.58.62-.6,1,.54,0,.68-.62,1.1-.77l.37.34a3.59,3.59,0,0,1,.23,1c.16.72.32,1.45.47,2.17,0,.36.05.72.07,1.07s.35.89.7,1a.15.15,0,0,0,.17,0c.11-.09.05-.26.13-.4s.52-.1.77-.16c.68-.18,1.48-.17,2.24-.34C329.2,120,329.79,120.19,330.08,120Zm-5.42-4.35a2.26,2.26,0,0,1,1-.16c.35.16.22.68.43,1-.07.17-.89.41-1.14.43C325,116.6,324.89,115.87,324.66,115.68Zm.43,1.64a3.63,3.63,0,0,0,1.11-.37h0a3.3,3.3,0,0,0,.27,1.07c-.12.3-.86.27-1.14.44A3,3,0,0,1,325.09,117.32Zm.6,2.81a10.88,10.88,0,0,1-.3-1.4,9.83,9.83,0,0,0,1.2-.27,5,5,0,0,0,.37,1.4v.07A5.71,5.71,0,0,1,325.69,120.13Z"/><path class="cls-13" d="M298.3,95.55a.43.43,0,0,1,.17.06c.66,0,.79-.57,1.13-.93.29.69.08,1.9-.56,2.07-.28.19-.68-.06-.84-.2a4,4,0,0,1-.87-2.14c-.07-.29,0-.88-.1-1.11s.08-1-.1-1.13v0h-.06c0,2.08-.12,5.3,1.5,5.75a1,1,0,0,0,1.1-.5,3.81,3.81,0,0,0-.16-3.75c-.29,0-.7.71-.84.94-.07,0-.06,0-.1,0s-.07-.05-.13-.1c-.05-.78.11-1.52.13-2.27.88.09,1.64.59,2.54.64a1,1,0,0,1,.07-.47.26.26,0,0,0,0-.14,3.66,3.66,0,0,0-1-.26v0h0c.12-1-.16-1.76-.84-2l-1.14-.2a1.59,1.59,0,0,1-.43-.33c-.05-.32-.11-.68.13-.87,0-.12,0-.14-.1-.2v0h0a2.68,2.68,0,0,0-.27.67,1.43,1.43,0,0,0,.77,1.71l1,.17c.26.1.38.32.56.5,0,.43-.42.48-.77.36-.54-.17-1.11-.29-1.67-.5a1.85,1.85,0,0,0-.47-.16l-.06.63,1.4.44C298.18,93.22,297.71,94.63,298.3,95.55Z"/><path class="cls-13" d="M302.48,114c.2.11.25.58.33.8a2.46,2.46,0,0,0,.88,1.31v0h.07a4.34,4.34,0,0,0-.41-1c-.29-.72-.52-1.48-.77-2.2-.14-.43-.23-.84-.36-1.24a2.58,2.58,0,0,0-.17-.61V111a3.78,3.78,0,0,1,.77.2H303a2.28,2.28,0,0,0-.17-.61c-.1-.16-.75-.16-.94-.3a5,5,0,0,1-.7-1.1,7.65,7.65,0,0,0-1.81-2.07,1.84,1.84,0,0,0-1.3-.57l-.24.16a3,3,0,0,0,.5,2.21V109a.9.9,0,0,1-.43-.23h0a1.14,1.14,0,0,0,.13.57c0,.17.31.3.47.34a22.64,22.64,0,0,0,.8,2.57c.24.65.37,1.25.63,1.87.14.31.45.53.54.84h.1a8.34,8.34,0,0,0-.33-.8c-.31-.74-.56-1.53-.81-2.27-.16-.5-.27-1-.43-1.44a2,2,0,0,0-.14-.51v0a1.92,1.92,0,0,1,.54.24c.39.16.76.23,1.17.4a4.09,4.09,0,0,0,1,.33,4.35,4.35,0,0,0,.37,1.31v.1c-.51-.35-.5-.85-1.41-.77a.7.7,0,0,1-.17.13,1.27,1.27,0,0,0,0,.77c.22.54.91,1.68,1.48,1.84C302.06,114.37,302.38,114.18,302.48,114Zm-.87-3.81a3.62,3.62,0,0,1-.93-.27c-.76-.28-1.44-.52-2.11-.84-.08-.3-.64-1.39-.33-1.77l.06-.1c.07,0,.07,0,.1,0,1,.12,2.07,1.38,2.58,2.07a3.73,3.73,0,0,0,.63.87v.07Zm-.86,2.5c0-.32.12-.32.26-.5.08,0,.1,0,.13,0,.52,0,.64.24.94.44a1.38,1.38,0,0,1,.07.5l-.3.36c-.09.07-.19.1-.27.17C301,113.62,301,113.06,300.75,112.7Z"/><path class="cls-13" d="M359.94,69a2.85,2.85,0,0,0,1.54,1.24c.8.2,1.2-.75,1.5-1.11s1-.45,1.24-.93a1,1,0,0,0,0-.67A6.32,6.32,0,0,0,363,65.92c0-.2.12-.21.2-.34.21.11.29.4.44.57s.46.34.67.54a.83.83,0,0,0,.66-.24h0c-.08-.22-.38-.38-.53-.53-.35-.35-.62-.79-1-1.14v0a3.79,3.79,0,0,0-.87.73c-.21-.08-.33-.31-.51-.43a3.13,3.13,0,0,0-2.1-1,1.74,1.74,0,0,1-.47.16,2.19,2.19,0,0,0-1.1,1,2.44,2.44,0,0,0,.16,1.64A10.28,10.28,0,0,0,359.94,69Zm-.17-4.65c.57,0,.84.39,1.17.64a9.85,9.85,0,0,1,2.11,2.21c.27.37.64.58.63,1.23-.1.1-.13.19-.3.24l-.06,0a24,24,0,0,0-1.71-2.17c-.18-.24-.45-.44-.63-.67-.31-.41-.67-.73-1-1.11a1.48,1.48,0,0,0-.26-.3A.24.24,0,0,1,359.77,64.31Zm-.83.47h.13c.16.25.45.43.64.67.49.66,1.11,1.24,1.6,1.91.3.41.64.79.93,1.2a2.72,2.72,0,0,0,.47.63.83.83,0,0,1-.16.34c-.59.14-.89-.25-1.2-.57a15.06,15.06,0,0,1-2-2.74C359.19,65.88,358.66,65.26,358.94,64.78Z"/><path class="cls-14" d="M494.83,922.65c40.17,0,73.56-33.31,73.56-73.55s-33.46-73.56-73.63-73.56-73.48,33.39-73.48,73.56S454.6,922.65,494.83,922.65Zm0-12.26a61.3,61.3,0,1,1,61.3-61.29A61,61,0,0,1,494.83,910.39Zm-18.67-33.17a22.57,22.57,0,0,1,12.76,3.89,31.6,31.6,0,0,0,3,1.59V823.07c-2.6-5-9.45-8.66-17.6-8.66-9.16,0-17.45,4.26-20,9.52v55.74c0,2.6,1.51,3.54,3.38,3.54A5.08,5.08,0,0,0,461,882C463.39,879.82,468.8,877.22,476.16,877.22Zm37.28,0c7.28,0,12.76,2.6,15.14,4.76a5,5,0,0,0,3.39,1.23c1.88,0,3.32-.94,3.32-3.54V823.93c-2.6-5.26-10.89-9.52-20-9.52-8,0-14.85,3.68-17.52,8.66v59.78a19.62,19.62,0,0,0,2.95-1.74A21.77,21.77,0,0,1,513.44,877.22Z"/><path class="cls-15" d="M651.15,856.8a45.36,45.36,0,1,1-32.07,13.28A45.26,45.26,0,0,1,651.15,856.8Zm0,2.21a43.14,43.14,0,1,0,30.52,12.64A43,43,0,0,0,651.15,859Zm17,20.89a4.92,4.92,0,0,1,3.52,1.19,4.68,4.68,0,0,1,1.25,3.13l0,.43v36.48c0,1.81-.3,3.11-1.1,3.94a4.71,4.71,0,0,1-3.27,1.18l-.49,0H633.22a5.1,5.1,0,0,1-3.64-1.06,4.48,4.48,0,0,1-1.14-3.05l0-.45V885.05a6.25,6.25,0,0,1,.93-3.95,3.69,3.69,0,0,1,2.67-1.16l.43,0h5a7.09,7.09,0,0,0,.94,3.18,4.35,4.35,0,0,0,3,2.12l.37,0h17.34a4.29,4.29,0,0,0,3.31-1.8,6.43,6.43,0,0,0,1.13-2.42l.09-.46,4.48-.68Zm-5.85,30H638.44l-.33,0a2.66,2.66,0,0,0-1.6.79,2.75,2.75,0,0,0-.83,2,3.22,3.22,0,0,0,.75,2,3.06,3.06,0,0,0,1.93,1.1h24l.28,0a2.45,2.45,0,0,0,1.61-1,4,4,0,0,0,.79-2.12,2.71,2.71,0,0,0-.8-1.94,2.81,2.81,0,0,0-2-.82Zm.14-9.62H638.58l-.29,0a2.62,2.62,0,0,0-1.67.9,3.2,3.2,0,0,0-.8,2,3.08,3.08,0,0,0,.71,1.91,2.85,2.85,0,0,0,1.82,1h24.14l.27,0a3,3,0,0,0,1.82-1,2.43,2.43,0,0,0,.6-2.07,3.07,3.07,0,0,0-.77-1.86,2.71,2.71,0,0,0-2-.94Zm0-10H638.58l-.29,0a2.67,2.67,0,0,0-1.67.9,3.23,3.23,0,0,0-.8,2.05,3.08,3.08,0,0,0,.71,1.91,2.89,2.89,0,0,0,1.82,1.05h24.14l.28,0a3.06,3.06,0,0,0,1.82-1,2.43,2.43,0,0,0,.59-2.08,3.09,3.09,0,0,0-.77-1.87,2.71,2.71,0,0,0-2-.94ZM656,878c1.1,1.9,1.06,2.37.86,2.66l0,.06-11.95.43c-1.29-.7-1.44-1.11-1.44-1.57a1.72,1.72,0,0,1,.26-.9l.13-.17L656,878Z"/><path class="cls-15" d="M259.75,213.54A32.43,32.43,0,1,0,292.18,246,32.46,32.46,0,0,0,259.75,213.54Zm-.83,53a4.56,4.56,0,1,1,4.56-4.56A4.58,4.58,0,0,1,258.92,266.52Zm4.33-17.39c-1.33,2-.89,4.67-4.55,4.67a3.53,3.53,0,0,1-3.55-3.72c0-6.61,9.71-8.11,9.71-13.56,0-3-2-4.77-5.33-4.77-7.11,0-4.33,7.33-9.72,7.33a3.33,3.33,0,0,1-3.61-3.39c0-5.44,6.22-10.28,13-10.28,7.11,0,14.11,3.28,14.11,11.11C273.31,243.74,265,246.52,263.25,249.13Z"/><path class="cls-15" d="M259.23,170.73A75.24,75.24,0,1,0,334.47,246,75.23,75.23,0,0,0,259.23,170.73ZM259.75,282a36,36,0,1,1,36-36A36,36,0,0,1,259.75,282Z"/></svg>